%TF.GenerationSoftware,KiCad,Pcbnew,8.0.3*%
%TF.CreationDate,2025-01-03T03:50:19-05:00*%
%TF.ProjectId,Ni-MH-Chromatic,4e692d4d-482d-4436-9872-6f6d61746963,rev?*%
%TF.SameCoordinates,Original*%
%TF.FileFunction,Drillmap*%
%TF.FilePolarity,Positive*%
%FSLAX45Y45*%
G04 Gerber Fmt 4.5, Leading zero omitted, Abs format (unit mm)*
G04 Created by KiCad (PCBNEW 8.0.3) date 2025-01-03 03:50:19*
%MOMM*%
%LPD*%
G01*
G04 APERTURE LIST*
%ADD10C,0.050000*%
%ADD11C,0.200000*%
%ADD12C,0.100000*%
G04 APERTURE END LIST*
D10*
X15955000Y-8850000D02*
X16955000Y-8850000D01*
X16955000Y-9850000D01*
X15955000Y-9850000D01*
X15955000Y-8850000D01*
D11*
D12*
X16322881Y-9680588D02*
X16352881Y-9710588D01*
X16352881Y-9680588D02*
X16322881Y-9710588D01*
X16333289Y-9415000D02*
X16363289Y-9445000D01*
X16363289Y-9415000D02*
X16333289Y-9445000D01*
X16547500Y-9412500D02*
X16577500Y-9442500D01*
X16577500Y-9412500D02*
X16547500Y-9442500D01*
X16812500Y-9712500D02*
X16842500Y-9742500D01*
X16842500Y-9712500D02*
X16812500Y-9742500D01*
X16467500Y-9512500D02*
G75*
G02*
X16437500Y-9512500I-15000J0D01*
G01*
X16437500Y-9512500D02*
G75*
G02*
X16467500Y-9512500I15000J0D01*
G01*
X16467500Y-9622500D02*
G75*
G02*
X16437500Y-9622500I-15000J0D01*
G01*
X16437500Y-9622500D02*
G75*
G02*
X16467500Y-9622500I15000J0D01*
G01*
D11*
X16213277Y-10163984D02*
X16213277Y-9963984D01*
X16213277Y-9963984D02*
X16260896Y-9963984D01*
X16260896Y-9963984D02*
X16289467Y-9973508D01*
X16289467Y-9973508D02*
X16308515Y-9992555D01*
X16308515Y-9992555D02*
X16318039Y-10011603D01*
X16318039Y-10011603D02*
X16327562Y-10049698D01*
X16327562Y-10049698D02*
X16327562Y-10078270D01*
X16327562Y-10078270D02*
X16318039Y-10116365D01*
X16318039Y-10116365D02*
X16308515Y-10135412D01*
X16308515Y-10135412D02*
X16289467Y-10154460D01*
X16289467Y-10154460D02*
X16260896Y-10163984D01*
X16260896Y-10163984D02*
X16213277Y-10163984D01*
X16413277Y-10163984D02*
X16413277Y-10030650D01*
X16413277Y-10068746D02*
X16422801Y-10049698D01*
X16422801Y-10049698D02*
X16432324Y-10040174D01*
X16432324Y-10040174D02*
X16451372Y-10030650D01*
X16451372Y-10030650D02*
X16470420Y-10030650D01*
X16537086Y-10163984D02*
X16537086Y-10030650D01*
X16537086Y-9963984D02*
X16527562Y-9973508D01*
X16527562Y-9973508D02*
X16537086Y-9983031D01*
X16537086Y-9983031D02*
X16546610Y-9973508D01*
X16546610Y-9973508D02*
X16537086Y-9963984D01*
X16537086Y-9963984D02*
X16537086Y-9983031D01*
X16660896Y-10163984D02*
X16641848Y-10154460D01*
X16641848Y-10154460D02*
X16632324Y-10135412D01*
X16632324Y-10135412D02*
X16632324Y-9963984D01*
X16765658Y-10163984D02*
X16746610Y-10154460D01*
X16746610Y-10154460D02*
X16737086Y-10135412D01*
X16737086Y-10135412D02*
X16737086Y-9963984D01*
X16994229Y-10163984D02*
X16994229Y-9963984D01*
X16994229Y-9963984D02*
X17060896Y-10106841D01*
X17060896Y-10106841D02*
X17127563Y-9963984D01*
X17127563Y-9963984D02*
X17127563Y-10163984D01*
X17308515Y-10163984D02*
X17308515Y-10059222D01*
X17308515Y-10059222D02*
X17298991Y-10040174D01*
X17298991Y-10040174D02*
X17279944Y-10030650D01*
X17279944Y-10030650D02*
X17241848Y-10030650D01*
X17241848Y-10030650D02*
X17222801Y-10040174D01*
X17308515Y-10154460D02*
X17289467Y-10163984D01*
X17289467Y-10163984D02*
X17241848Y-10163984D01*
X17241848Y-10163984D02*
X17222801Y-10154460D01*
X17222801Y-10154460D02*
X17213277Y-10135412D01*
X17213277Y-10135412D02*
X17213277Y-10116365D01*
X17213277Y-10116365D02*
X17222801Y-10097317D01*
X17222801Y-10097317D02*
X17241848Y-10087793D01*
X17241848Y-10087793D02*
X17289467Y-10087793D01*
X17289467Y-10087793D02*
X17308515Y-10078270D01*
X17403753Y-10030650D02*
X17403753Y-10230650D01*
X17403753Y-10040174D02*
X17422801Y-10030650D01*
X17422801Y-10030650D02*
X17460896Y-10030650D01*
X17460896Y-10030650D02*
X17479944Y-10040174D01*
X17479944Y-10040174D02*
X17489467Y-10049698D01*
X17489467Y-10049698D02*
X17498991Y-10068746D01*
X17498991Y-10068746D02*
X17498991Y-10125889D01*
X17498991Y-10125889D02*
X17489467Y-10144936D01*
X17489467Y-10144936D02*
X17479944Y-10154460D01*
X17479944Y-10154460D02*
X17460896Y-10163984D01*
X17460896Y-10163984D02*
X17422801Y-10163984D01*
X17422801Y-10163984D02*
X17403753Y-10154460D01*
X17584705Y-10144936D02*
X17594229Y-10154460D01*
X17594229Y-10154460D02*
X17584705Y-10163984D01*
X17584705Y-10163984D02*
X17575182Y-10154460D01*
X17575182Y-10154460D02*
X17584705Y-10144936D01*
X17584705Y-10144936D02*
X17584705Y-10163984D01*
X17584705Y-10040174D02*
X17594229Y-10049698D01*
X17594229Y-10049698D02*
X17584705Y-10059222D01*
X17584705Y-10059222D02*
X17575182Y-10049698D01*
X17575182Y-10049698D02*
X17584705Y-10040174D01*
X17584705Y-10040174D02*
X17584705Y-10059222D01*
D12*
X15922500Y-10477500D02*
X15952500Y-10507500D01*
X15952500Y-10477500D02*
X15922500Y-10507500D01*
D11*
X16251372Y-10383984D02*
X16270420Y-10383984D01*
X16270420Y-10383984D02*
X16289467Y-10393508D01*
X16289467Y-10393508D02*
X16298991Y-10403031D01*
X16298991Y-10403031D02*
X16308515Y-10422079D01*
X16308515Y-10422079D02*
X16318039Y-10460174D01*
X16318039Y-10460174D02*
X16318039Y-10507793D01*
X16318039Y-10507793D02*
X16308515Y-10545889D01*
X16308515Y-10545889D02*
X16298991Y-10564936D01*
X16298991Y-10564936D02*
X16289467Y-10574460D01*
X16289467Y-10574460D02*
X16270420Y-10583984D01*
X16270420Y-10583984D02*
X16251372Y-10583984D01*
X16251372Y-10583984D02*
X16232324Y-10574460D01*
X16232324Y-10574460D02*
X16222801Y-10564936D01*
X16222801Y-10564936D02*
X16213277Y-10545889D01*
X16213277Y-10545889D02*
X16203753Y-10507793D01*
X16203753Y-10507793D02*
X16203753Y-10460174D01*
X16203753Y-10460174D02*
X16213277Y-10422079D01*
X16213277Y-10422079D02*
X16222801Y-10403031D01*
X16222801Y-10403031D02*
X16232324Y-10393508D01*
X16232324Y-10393508D02*
X16251372Y-10383984D01*
X16403753Y-10564936D02*
X16413277Y-10574460D01*
X16413277Y-10574460D02*
X16403753Y-10583984D01*
X16403753Y-10583984D02*
X16394229Y-10574460D01*
X16394229Y-10574460D02*
X16403753Y-10564936D01*
X16403753Y-10564936D02*
X16403753Y-10583984D01*
X16479943Y-10383984D02*
X16603753Y-10383984D01*
X16603753Y-10383984D02*
X16537086Y-10460174D01*
X16537086Y-10460174D02*
X16565658Y-10460174D01*
X16565658Y-10460174D02*
X16584705Y-10469698D01*
X16584705Y-10469698D02*
X16594229Y-10479222D01*
X16594229Y-10479222D02*
X16603753Y-10498270D01*
X16603753Y-10498270D02*
X16603753Y-10545889D01*
X16603753Y-10545889D02*
X16594229Y-10564936D01*
X16594229Y-10564936D02*
X16584705Y-10574460D01*
X16584705Y-10574460D02*
X16565658Y-10583984D01*
X16565658Y-10583984D02*
X16508515Y-10583984D01*
X16508515Y-10583984D02*
X16489467Y-10574460D01*
X16489467Y-10574460D02*
X16479943Y-10564936D01*
X16727562Y-10383984D02*
X16746610Y-10383984D01*
X16746610Y-10383984D02*
X16765658Y-10393508D01*
X16765658Y-10393508D02*
X16775182Y-10403031D01*
X16775182Y-10403031D02*
X16784705Y-10422079D01*
X16784705Y-10422079D02*
X16794229Y-10460174D01*
X16794229Y-10460174D02*
X16794229Y-10507793D01*
X16794229Y-10507793D02*
X16784705Y-10545889D01*
X16784705Y-10545889D02*
X16775182Y-10564936D01*
X16775182Y-10564936D02*
X16765658Y-10574460D01*
X16765658Y-10574460D02*
X16746610Y-10583984D01*
X16746610Y-10583984D02*
X16727562Y-10583984D01*
X16727562Y-10583984D02*
X16708515Y-10574460D01*
X16708515Y-10574460D02*
X16698991Y-10564936D01*
X16698991Y-10564936D02*
X16689467Y-10545889D01*
X16689467Y-10545889D02*
X16679943Y-10507793D01*
X16679943Y-10507793D02*
X16679943Y-10460174D01*
X16679943Y-10460174D02*
X16689467Y-10422079D01*
X16689467Y-10422079D02*
X16698991Y-10403031D01*
X16698991Y-10403031D02*
X16708515Y-10393508D01*
X16708515Y-10393508D02*
X16727562Y-10383984D01*
X16918039Y-10383984D02*
X16937086Y-10383984D01*
X16937086Y-10383984D02*
X16956134Y-10393508D01*
X16956134Y-10393508D02*
X16965658Y-10403031D01*
X16965658Y-10403031D02*
X16975182Y-10422079D01*
X16975182Y-10422079D02*
X16984705Y-10460174D01*
X16984705Y-10460174D02*
X16984705Y-10507793D01*
X16984705Y-10507793D02*
X16975182Y-10545889D01*
X16975182Y-10545889D02*
X16965658Y-10564936D01*
X16965658Y-10564936D02*
X16956134Y-10574460D01*
X16956134Y-10574460D02*
X16937086Y-10583984D01*
X16937086Y-10583984D02*
X16918039Y-10583984D01*
X16918039Y-10583984D02*
X16898991Y-10574460D01*
X16898991Y-10574460D02*
X16889467Y-10564936D01*
X16889467Y-10564936D02*
X16879944Y-10545889D01*
X16879944Y-10545889D02*
X16870420Y-10507793D01*
X16870420Y-10507793D02*
X16870420Y-10460174D01*
X16870420Y-10460174D02*
X16879944Y-10422079D01*
X16879944Y-10422079D02*
X16889467Y-10403031D01*
X16889467Y-10403031D02*
X16898991Y-10393508D01*
X16898991Y-10393508D02*
X16918039Y-10383984D01*
X17070420Y-10583984D02*
X17070420Y-10450650D01*
X17070420Y-10469698D02*
X17079944Y-10460174D01*
X17079944Y-10460174D02*
X17098991Y-10450650D01*
X17098991Y-10450650D02*
X17127563Y-10450650D01*
X17127563Y-10450650D02*
X17146610Y-10460174D01*
X17146610Y-10460174D02*
X17156134Y-10479222D01*
X17156134Y-10479222D02*
X17156134Y-10583984D01*
X17156134Y-10479222D02*
X17165658Y-10460174D01*
X17165658Y-10460174D02*
X17184705Y-10450650D01*
X17184705Y-10450650D02*
X17213277Y-10450650D01*
X17213277Y-10450650D02*
X17232325Y-10460174D01*
X17232325Y-10460174D02*
X17241848Y-10479222D01*
X17241848Y-10479222D02*
X17241848Y-10583984D01*
X17337086Y-10583984D02*
X17337086Y-10450650D01*
X17337086Y-10469698D02*
X17346610Y-10460174D01*
X17346610Y-10460174D02*
X17365658Y-10450650D01*
X17365658Y-10450650D02*
X17394229Y-10450650D01*
X17394229Y-10450650D02*
X17413277Y-10460174D01*
X17413277Y-10460174D02*
X17422801Y-10479222D01*
X17422801Y-10479222D02*
X17422801Y-10583984D01*
X17422801Y-10479222D02*
X17432325Y-10460174D01*
X17432325Y-10460174D02*
X17451372Y-10450650D01*
X17451372Y-10450650D02*
X17479944Y-10450650D01*
X17479944Y-10450650D02*
X17498991Y-10460174D01*
X17498991Y-10460174D02*
X17508515Y-10479222D01*
X17508515Y-10479222D02*
X17508515Y-10583984D01*
X17898991Y-10374460D02*
X17727563Y-10631603D01*
X18156134Y-10383984D02*
X18175182Y-10383984D01*
X18175182Y-10383984D02*
X18194229Y-10393508D01*
X18194229Y-10393508D02*
X18203753Y-10403031D01*
X18203753Y-10403031D02*
X18213277Y-10422079D01*
X18213277Y-10422079D02*
X18222801Y-10460174D01*
X18222801Y-10460174D02*
X18222801Y-10507793D01*
X18222801Y-10507793D02*
X18213277Y-10545889D01*
X18213277Y-10545889D02*
X18203753Y-10564936D01*
X18203753Y-10564936D02*
X18194229Y-10574460D01*
X18194229Y-10574460D02*
X18175182Y-10583984D01*
X18175182Y-10583984D02*
X18156134Y-10583984D01*
X18156134Y-10583984D02*
X18137087Y-10574460D01*
X18137087Y-10574460D02*
X18127563Y-10564936D01*
X18127563Y-10564936D02*
X18118039Y-10545889D01*
X18118039Y-10545889D02*
X18108515Y-10507793D01*
X18108515Y-10507793D02*
X18108515Y-10460174D01*
X18108515Y-10460174D02*
X18118039Y-10422079D01*
X18118039Y-10422079D02*
X18127563Y-10403031D01*
X18127563Y-10403031D02*
X18137087Y-10393508D01*
X18137087Y-10393508D02*
X18156134Y-10383984D01*
X18308515Y-10564936D02*
X18318039Y-10574460D01*
X18318039Y-10574460D02*
X18308515Y-10583984D01*
X18308515Y-10583984D02*
X18298991Y-10574460D01*
X18298991Y-10574460D02*
X18308515Y-10564936D01*
X18308515Y-10564936D02*
X18308515Y-10583984D01*
X18441848Y-10383984D02*
X18460896Y-10383984D01*
X18460896Y-10383984D02*
X18479944Y-10393508D01*
X18479944Y-10393508D02*
X18489468Y-10403031D01*
X18489468Y-10403031D02*
X18498991Y-10422079D01*
X18498991Y-10422079D02*
X18508515Y-10460174D01*
X18508515Y-10460174D02*
X18508515Y-10507793D01*
X18508515Y-10507793D02*
X18498991Y-10545889D01*
X18498991Y-10545889D02*
X18489468Y-10564936D01*
X18489468Y-10564936D02*
X18479944Y-10574460D01*
X18479944Y-10574460D02*
X18460896Y-10583984D01*
X18460896Y-10583984D02*
X18441848Y-10583984D01*
X18441848Y-10583984D02*
X18422801Y-10574460D01*
X18422801Y-10574460D02*
X18413277Y-10564936D01*
X18413277Y-10564936D02*
X18403753Y-10545889D01*
X18403753Y-10545889D02*
X18394229Y-10507793D01*
X18394229Y-10507793D02*
X18394229Y-10460174D01*
X18394229Y-10460174D02*
X18403753Y-10422079D01*
X18403753Y-10422079D02*
X18413277Y-10403031D01*
X18413277Y-10403031D02*
X18422801Y-10393508D01*
X18422801Y-10393508D02*
X18441848Y-10383984D01*
X18698991Y-10583984D02*
X18584706Y-10583984D01*
X18641848Y-10583984D02*
X18641848Y-10383984D01*
X18641848Y-10383984D02*
X18622801Y-10412555D01*
X18622801Y-10412555D02*
X18603753Y-10431603D01*
X18603753Y-10431603D02*
X18584706Y-10441127D01*
X18889468Y-10583984D02*
X18775182Y-10583984D01*
X18832325Y-10583984D02*
X18832325Y-10383984D01*
X18832325Y-10383984D02*
X18813277Y-10412555D01*
X18813277Y-10412555D02*
X18794229Y-10431603D01*
X18794229Y-10431603D02*
X18775182Y-10441127D01*
X19003753Y-10469698D02*
X18984706Y-10460174D01*
X18984706Y-10460174D02*
X18975182Y-10450650D01*
X18975182Y-10450650D02*
X18965658Y-10431603D01*
X18965658Y-10431603D02*
X18965658Y-10422079D01*
X18965658Y-10422079D02*
X18975182Y-10403031D01*
X18975182Y-10403031D02*
X18984706Y-10393508D01*
X18984706Y-10393508D02*
X19003753Y-10383984D01*
X19003753Y-10383984D02*
X19041849Y-10383984D01*
X19041849Y-10383984D02*
X19060896Y-10393508D01*
X19060896Y-10393508D02*
X19070420Y-10403031D01*
X19070420Y-10403031D02*
X19079944Y-10422079D01*
X19079944Y-10422079D02*
X19079944Y-10431603D01*
X19079944Y-10431603D02*
X19070420Y-10450650D01*
X19070420Y-10450650D02*
X19060896Y-10460174D01*
X19060896Y-10460174D02*
X19041849Y-10469698D01*
X19041849Y-10469698D02*
X19003753Y-10469698D01*
X19003753Y-10469698D02*
X18984706Y-10479222D01*
X18984706Y-10479222D02*
X18975182Y-10488746D01*
X18975182Y-10488746D02*
X18965658Y-10507793D01*
X18965658Y-10507793D02*
X18965658Y-10545889D01*
X18965658Y-10545889D02*
X18975182Y-10564936D01*
X18975182Y-10564936D02*
X18984706Y-10574460D01*
X18984706Y-10574460D02*
X19003753Y-10583984D01*
X19003753Y-10583984D02*
X19041849Y-10583984D01*
X19041849Y-10583984D02*
X19060896Y-10574460D01*
X19060896Y-10574460D02*
X19070420Y-10564936D01*
X19070420Y-10564936D02*
X19079944Y-10545889D01*
X19079944Y-10545889D02*
X19079944Y-10507793D01*
X19079944Y-10507793D02*
X19070420Y-10488746D01*
X19070420Y-10488746D02*
X19060896Y-10479222D01*
X19060896Y-10479222D02*
X19041849Y-10469698D01*
X19156134Y-10383984D02*
X19156134Y-10422079D01*
X19232325Y-10383984D02*
X19232325Y-10422079D01*
X19527563Y-10660174D02*
X19518039Y-10650650D01*
X19518039Y-10650650D02*
X19498991Y-10622079D01*
X19498991Y-10622079D02*
X19489468Y-10603031D01*
X19489468Y-10603031D02*
X19479944Y-10574460D01*
X19479944Y-10574460D02*
X19470420Y-10526841D01*
X19470420Y-10526841D02*
X19470420Y-10488746D01*
X19470420Y-10488746D02*
X19479944Y-10441127D01*
X19479944Y-10441127D02*
X19489468Y-10412555D01*
X19489468Y-10412555D02*
X19498991Y-10393508D01*
X19498991Y-10393508D02*
X19518039Y-10364936D01*
X19518039Y-10364936D02*
X19527563Y-10355412D01*
X19689468Y-10450650D02*
X19689468Y-10583984D01*
X19641849Y-10374460D02*
X19594230Y-10517317D01*
X19594230Y-10517317D02*
X19718039Y-10517317D01*
X19946611Y-10583984D02*
X19946611Y-10383984D01*
X20032325Y-10583984D02*
X20032325Y-10479222D01*
X20032325Y-10479222D02*
X20022801Y-10460174D01*
X20022801Y-10460174D02*
X20003753Y-10450650D01*
X20003753Y-10450650D02*
X19975182Y-10450650D01*
X19975182Y-10450650D02*
X19956134Y-10460174D01*
X19956134Y-10460174D02*
X19946611Y-10469698D01*
X20156134Y-10583984D02*
X20137087Y-10574460D01*
X20137087Y-10574460D02*
X20127563Y-10564936D01*
X20127563Y-10564936D02*
X20118039Y-10545889D01*
X20118039Y-10545889D02*
X20118039Y-10488746D01*
X20118039Y-10488746D02*
X20127563Y-10469698D01*
X20127563Y-10469698D02*
X20137087Y-10460174D01*
X20137087Y-10460174D02*
X20156134Y-10450650D01*
X20156134Y-10450650D02*
X20184706Y-10450650D01*
X20184706Y-10450650D02*
X20203753Y-10460174D01*
X20203753Y-10460174D02*
X20213277Y-10469698D01*
X20213277Y-10469698D02*
X20222801Y-10488746D01*
X20222801Y-10488746D02*
X20222801Y-10545889D01*
X20222801Y-10545889D02*
X20213277Y-10564936D01*
X20213277Y-10564936D02*
X20203753Y-10574460D01*
X20203753Y-10574460D02*
X20184706Y-10583984D01*
X20184706Y-10583984D02*
X20156134Y-10583984D01*
X20337087Y-10583984D02*
X20318039Y-10574460D01*
X20318039Y-10574460D02*
X20308515Y-10555412D01*
X20308515Y-10555412D02*
X20308515Y-10383984D01*
X20489468Y-10574460D02*
X20470420Y-10583984D01*
X20470420Y-10583984D02*
X20432325Y-10583984D01*
X20432325Y-10583984D02*
X20413277Y-10574460D01*
X20413277Y-10574460D02*
X20403753Y-10555412D01*
X20403753Y-10555412D02*
X20403753Y-10479222D01*
X20403753Y-10479222D02*
X20413277Y-10460174D01*
X20413277Y-10460174D02*
X20432325Y-10450650D01*
X20432325Y-10450650D02*
X20470420Y-10450650D01*
X20470420Y-10450650D02*
X20489468Y-10460174D01*
X20489468Y-10460174D02*
X20498992Y-10479222D01*
X20498992Y-10479222D02*
X20498992Y-10498270D01*
X20498992Y-10498270D02*
X20403753Y-10517317D01*
X20575182Y-10574460D02*
X20594230Y-10583984D01*
X20594230Y-10583984D02*
X20632325Y-10583984D01*
X20632325Y-10583984D02*
X20651373Y-10574460D01*
X20651373Y-10574460D02*
X20660896Y-10555412D01*
X20660896Y-10555412D02*
X20660896Y-10545889D01*
X20660896Y-10545889D02*
X20651373Y-10526841D01*
X20651373Y-10526841D02*
X20632325Y-10517317D01*
X20632325Y-10517317D02*
X20603753Y-10517317D01*
X20603753Y-10517317D02*
X20584706Y-10507793D01*
X20584706Y-10507793D02*
X20575182Y-10488746D01*
X20575182Y-10488746D02*
X20575182Y-10479222D01*
X20575182Y-10479222D02*
X20584706Y-10460174D01*
X20584706Y-10460174D02*
X20603753Y-10450650D01*
X20603753Y-10450650D02*
X20632325Y-10450650D01*
X20632325Y-10450650D02*
X20651373Y-10460174D01*
X20727563Y-10660174D02*
X20737087Y-10650650D01*
X20737087Y-10650650D02*
X20756134Y-10622079D01*
X20756134Y-10622079D02*
X20765658Y-10603031D01*
X20765658Y-10603031D02*
X20775182Y-10574460D01*
X20775182Y-10574460D02*
X20784706Y-10526841D01*
X20784706Y-10526841D02*
X20784706Y-10488746D01*
X20784706Y-10488746D02*
X20775182Y-10441127D01*
X20775182Y-10441127D02*
X20765658Y-10412555D01*
X20765658Y-10412555D02*
X20756134Y-10393508D01*
X20756134Y-10393508D02*
X20737087Y-10364936D01*
X20737087Y-10364936D02*
X20727563Y-10355412D01*
D12*
X15952500Y-10756500D02*
G75*
G02*
X15922500Y-10756500I-15000J0D01*
G01*
X15922500Y-10756500D02*
G75*
G02*
X15952500Y-10756500I15000J0D01*
G01*
D11*
X16251372Y-10647984D02*
X16270420Y-10647984D01*
X16270420Y-10647984D02*
X16289467Y-10657508D01*
X16289467Y-10657508D02*
X16298991Y-10667031D01*
X16298991Y-10667031D02*
X16308515Y-10686079D01*
X16308515Y-10686079D02*
X16318039Y-10724174D01*
X16318039Y-10724174D02*
X16318039Y-10771793D01*
X16318039Y-10771793D02*
X16308515Y-10809889D01*
X16308515Y-10809889D02*
X16298991Y-10828936D01*
X16298991Y-10828936D02*
X16289467Y-10838460D01*
X16289467Y-10838460D02*
X16270420Y-10847984D01*
X16270420Y-10847984D02*
X16251372Y-10847984D01*
X16251372Y-10847984D02*
X16232324Y-10838460D01*
X16232324Y-10838460D02*
X16222801Y-10828936D01*
X16222801Y-10828936D02*
X16213277Y-10809889D01*
X16213277Y-10809889D02*
X16203753Y-10771793D01*
X16203753Y-10771793D02*
X16203753Y-10724174D01*
X16203753Y-10724174D02*
X16213277Y-10686079D01*
X16213277Y-10686079D02*
X16222801Y-10667031D01*
X16222801Y-10667031D02*
X16232324Y-10657508D01*
X16232324Y-10657508D02*
X16251372Y-10647984D01*
X16403753Y-10828936D02*
X16413277Y-10838460D01*
X16413277Y-10838460D02*
X16403753Y-10847984D01*
X16403753Y-10847984D02*
X16394229Y-10838460D01*
X16394229Y-10838460D02*
X16403753Y-10828936D01*
X16403753Y-10828936D02*
X16403753Y-10847984D01*
X16479943Y-10647984D02*
X16603753Y-10647984D01*
X16603753Y-10647984D02*
X16537086Y-10724174D01*
X16537086Y-10724174D02*
X16565658Y-10724174D01*
X16565658Y-10724174D02*
X16584705Y-10733698D01*
X16584705Y-10733698D02*
X16594229Y-10743222D01*
X16594229Y-10743222D02*
X16603753Y-10762270D01*
X16603753Y-10762270D02*
X16603753Y-10809889D01*
X16603753Y-10809889D02*
X16594229Y-10828936D01*
X16594229Y-10828936D02*
X16584705Y-10838460D01*
X16584705Y-10838460D02*
X16565658Y-10847984D01*
X16565658Y-10847984D02*
X16508515Y-10847984D01*
X16508515Y-10847984D02*
X16489467Y-10838460D01*
X16489467Y-10838460D02*
X16479943Y-10828936D01*
X16727562Y-10647984D02*
X16746610Y-10647984D01*
X16746610Y-10647984D02*
X16765658Y-10657508D01*
X16765658Y-10657508D02*
X16775182Y-10667031D01*
X16775182Y-10667031D02*
X16784705Y-10686079D01*
X16784705Y-10686079D02*
X16794229Y-10724174D01*
X16794229Y-10724174D02*
X16794229Y-10771793D01*
X16794229Y-10771793D02*
X16784705Y-10809889D01*
X16784705Y-10809889D02*
X16775182Y-10828936D01*
X16775182Y-10828936D02*
X16765658Y-10838460D01*
X16765658Y-10838460D02*
X16746610Y-10847984D01*
X16746610Y-10847984D02*
X16727562Y-10847984D01*
X16727562Y-10847984D02*
X16708515Y-10838460D01*
X16708515Y-10838460D02*
X16698991Y-10828936D01*
X16698991Y-10828936D02*
X16689467Y-10809889D01*
X16689467Y-10809889D02*
X16679943Y-10771793D01*
X16679943Y-10771793D02*
X16679943Y-10724174D01*
X16679943Y-10724174D02*
X16689467Y-10686079D01*
X16689467Y-10686079D02*
X16698991Y-10667031D01*
X16698991Y-10667031D02*
X16708515Y-10657508D01*
X16708515Y-10657508D02*
X16727562Y-10647984D01*
X16918039Y-10647984D02*
X16937086Y-10647984D01*
X16937086Y-10647984D02*
X16956134Y-10657508D01*
X16956134Y-10657508D02*
X16965658Y-10667031D01*
X16965658Y-10667031D02*
X16975182Y-10686079D01*
X16975182Y-10686079D02*
X16984705Y-10724174D01*
X16984705Y-10724174D02*
X16984705Y-10771793D01*
X16984705Y-10771793D02*
X16975182Y-10809889D01*
X16975182Y-10809889D02*
X16965658Y-10828936D01*
X16965658Y-10828936D02*
X16956134Y-10838460D01*
X16956134Y-10838460D02*
X16937086Y-10847984D01*
X16937086Y-10847984D02*
X16918039Y-10847984D01*
X16918039Y-10847984D02*
X16898991Y-10838460D01*
X16898991Y-10838460D02*
X16889467Y-10828936D01*
X16889467Y-10828936D02*
X16879944Y-10809889D01*
X16879944Y-10809889D02*
X16870420Y-10771793D01*
X16870420Y-10771793D02*
X16870420Y-10724174D01*
X16870420Y-10724174D02*
X16879944Y-10686079D01*
X16879944Y-10686079D02*
X16889467Y-10667031D01*
X16889467Y-10667031D02*
X16898991Y-10657508D01*
X16898991Y-10657508D02*
X16918039Y-10647984D01*
X17070420Y-10847984D02*
X17070420Y-10714650D01*
X17070420Y-10733698D02*
X17079944Y-10724174D01*
X17079944Y-10724174D02*
X17098991Y-10714650D01*
X17098991Y-10714650D02*
X17127563Y-10714650D01*
X17127563Y-10714650D02*
X17146610Y-10724174D01*
X17146610Y-10724174D02*
X17156134Y-10743222D01*
X17156134Y-10743222D02*
X17156134Y-10847984D01*
X17156134Y-10743222D02*
X17165658Y-10724174D01*
X17165658Y-10724174D02*
X17184705Y-10714650D01*
X17184705Y-10714650D02*
X17213277Y-10714650D01*
X17213277Y-10714650D02*
X17232325Y-10724174D01*
X17232325Y-10724174D02*
X17241848Y-10743222D01*
X17241848Y-10743222D02*
X17241848Y-10847984D01*
X17337086Y-10847984D02*
X17337086Y-10714650D01*
X17337086Y-10733698D02*
X17346610Y-10724174D01*
X17346610Y-10724174D02*
X17365658Y-10714650D01*
X17365658Y-10714650D02*
X17394229Y-10714650D01*
X17394229Y-10714650D02*
X17413277Y-10724174D01*
X17413277Y-10724174D02*
X17422801Y-10743222D01*
X17422801Y-10743222D02*
X17422801Y-10847984D01*
X17422801Y-10743222D02*
X17432325Y-10724174D01*
X17432325Y-10724174D02*
X17451372Y-10714650D01*
X17451372Y-10714650D02*
X17479944Y-10714650D01*
X17479944Y-10714650D02*
X17498991Y-10724174D01*
X17498991Y-10724174D02*
X17508515Y-10743222D01*
X17508515Y-10743222D02*
X17508515Y-10847984D01*
X17898991Y-10638460D02*
X17727563Y-10895603D01*
X18156134Y-10647984D02*
X18175182Y-10647984D01*
X18175182Y-10647984D02*
X18194229Y-10657508D01*
X18194229Y-10657508D02*
X18203753Y-10667031D01*
X18203753Y-10667031D02*
X18213277Y-10686079D01*
X18213277Y-10686079D02*
X18222801Y-10724174D01*
X18222801Y-10724174D02*
X18222801Y-10771793D01*
X18222801Y-10771793D02*
X18213277Y-10809889D01*
X18213277Y-10809889D02*
X18203753Y-10828936D01*
X18203753Y-10828936D02*
X18194229Y-10838460D01*
X18194229Y-10838460D02*
X18175182Y-10847984D01*
X18175182Y-10847984D02*
X18156134Y-10847984D01*
X18156134Y-10847984D02*
X18137087Y-10838460D01*
X18137087Y-10838460D02*
X18127563Y-10828936D01*
X18127563Y-10828936D02*
X18118039Y-10809889D01*
X18118039Y-10809889D02*
X18108515Y-10771793D01*
X18108515Y-10771793D02*
X18108515Y-10724174D01*
X18108515Y-10724174D02*
X18118039Y-10686079D01*
X18118039Y-10686079D02*
X18127563Y-10667031D01*
X18127563Y-10667031D02*
X18137087Y-10657508D01*
X18137087Y-10657508D02*
X18156134Y-10647984D01*
X18308515Y-10828936D02*
X18318039Y-10838460D01*
X18318039Y-10838460D02*
X18308515Y-10847984D01*
X18308515Y-10847984D02*
X18298991Y-10838460D01*
X18298991Y-10838460D02*
X18308515Y-10828936D01*
X18308515Y-10828936D02*
X18308515Y-10847984D01*
X18441848Y-10647984D02*
X18460896Y-10647984D01*
X18460896Y-10647984D02*
X18479944Y-10657508D01*
X18479944Y-10657508D02*
X18489468Y-10667031D01*
X18489468Y-10667031D02*
X18498991Y-10686079D01*
X18498991Y-10686079D02*
X18508515Y-10724174D01*
X18508515Y-10724174D02*
X18508515Y-10771793D01*
X18508515Y-10771793D02*
X18498991Y-10809889D01*
X18498991Y-10809889D02*
X18489468Y-10828936D01*
X18489468Y-10828936D02*
X18479944Y-10838460D01*
X18479944Y-10838460D02*
X18460896Y-10847984D01*
X18460896Y-10847984D02*
X18441848Y-10847984D01*
X18441848Y-10847984D02*
X18422801Y-10838460D01*
X18422801Y-10838460D02*
X18413277Y-10828936D01*
X18413277Y-10828936D02*
X18403753Y-10809889D01*
X18403753Y-10809889D02*
X18394229Y-10771793D01*
X18394229Y-10771793D02*
X18394229Y-10724174D01*
X18394229Y-10724174D02*
X18403753Y-10686079D01*
X18403753Y-10686079D02*
X18413277Y-10667031D01*
X18413277Y-10667031D02*
X18422801Y-10657508D01*
X18422801Y-10657508D02*
X18441848Y-10647984D01*
X18698991Y-10847984D02*
X18584706Y-10847984D01*
X18641848Y-10847984D02*
X18641848Y-10647984D01*
X18641848Y-10647984D02*
X18622801Y-10676555D01*
X18622801Y-10676555D02*
X18603753Y-10695603D01*
X18603753Y-10695603D02*
X18584706Y-10705127D01*
X18889468Y-10847984D02*
X18775182Y-10847984D01*
X18832325Y-10847984D02*
X18832325Y-10647984D01*
X18832325Y-10647984D02*
X18813277Y-10676555D01*
X18813277Y-10676555D02*
X18794229Y-10695603D01*
X18794229Y-10695603D02*
X18775182Y-10705127D01*
X19003753Y-10733698D02*
X18984706Y-10724174D01*
X18984706Y-10724174D02*
X18975182Y-10714650D01*
X18975182Y-10714650D02*
X18965658Y-10695603D01*
X18965658Y-10695603D02*
X18965658Y-10686079D01*
X18965658Y-10686079D02*
X18975182Y-10667031D01*
X18975182Y-10667031D02*
X18984706Y-10657508D01*
X18984706Y-10657508D02*
X19003753Y-10647984D01*
X19003753Y-10647984D02*
X19041849Y-10647984D01*
X19041849Y-10647984D02*
X19060896Y-10657508D01*
X19060896Y-10657508D02*
X19070420Y-10667031D01*
X19070420Y-10667031D02*
X19079944Y-10686079D01*
X19079944Y-10686079D02*
X19079944Y-10695603D01*
X19079944Y-10695603D02*
X19070420Y-10714650D01*
X19070420Y-10714650D02*
X19060896Y-10724174D01*
X19060896Y-10724174D02*
X19041849Y-10733698D01*
X19041849Y-10733698D02*
X19003753Y-10733698D01*
X19003753Y-10733698D02*
X18984706Y-10743222D01*
X18984706Y-10743222D02*
X18975182Y-10752746D01*
X18975182Y-10752746D02*
X18965658Y-10771793D01*
X18965658Y-10771793D02*
X18965658Y-10809889D01*
X18965658Y-10809889D02*
X18975182Y-10828936D01*
X18975182Y-10828936D02*
X18984706Y-10838460D01*
X18984706Y-10838460D02*
X19003753Y-10847984D01*
X19003753Y-10847984D02*
X19041849Y-10847984D01*
X19041849Y-10847984D02*
X19060896Y-10838460D01*
X19060896Y-10838460D02*
X19070420Y-10828936D01*
X19070420Y-10828936D02*
X19079944Y-10809889D01*
X19079944Y-10809889D02*
X19079944Y-10771793D01*
X19079944Y-10771793D02*
X19070420Y-10752746D01*
X19070420Y-10752746D02*
X19060896Y-10743222D01*
X19060896Y-10743222D02*
X19041849Y-10733698D01*
X19156134Y-10647984D02*
X19156134Y-10686079D01*
X19232325Y-10647984D02*
X19232325Y-10686079D01*
X19527563Y-10924174D02*
X19518039Y-10914650D01*
X19518039Y-10914650D02*
X19498991Y-10886079D01*
X19498991Y-10886079D02*
X19489468Y-10867031D01*
X19489468Y-10867031D02*
X19479944Y-10838460D01*
X19479944Y-10838460D02*
X19470420Y-10790841D01*
X19470420Y-10790841D02*
X19470420Y-10752746D01*
X19470420Y-10752746D02*
X19479944Y-10705127D01*
X19479944Y-10705127D02*
X19489468Y-10676555D01*
X19489468Y-10676555D02*
X19498991Y-10657508D01*
X19498991Y-10657508D02*
X19518039Y-10628936D01*
X19518039Y-10628936D02*
X19527563Y-10619412D01*
X19594230Y-10667031D02*
X19603753Y-10657508D01*
X19603753Y-10657508D02*
X19622801Y-10647984D01*
X19622801Y-10647984D02*
X19670420Y-10647984D01*
X19670420Y-10647984D02*
X19689468Y-10657508D01*
X19689468Y-10657508D02*
X19698991Y-10667031D01*
X19698991Y-10667031D02*
X19708515Y-10686079D01*
X19708515Y-10686079D02*
X19708515Y-10705127D01*
X19708515Y-10705127D02*
X19698991Y-10733698D01*
X19698991Y-10733698D02*
X19584706Y-10847984D01*
X19584706Y-10847984D02*
X19708515Y-10847984D01*
X19946611Y-10847984D02*
X19946611Y-10647984D01*
X20032325Y-10847984D02*
X20032325Y-10743222D01*
X20032325Y-10743222D02*
X20022801Y-10724174D01*
X20022801Y-10724174D02*
X20003753Y-10714650D01*
X20003753Y-10714650D02*
X19975182Y-10714650D01*
X19975182Y-10714650D02*
X19956134Y-10724174D01*
X19956134Y-10724174D02*
X19946611Y-10733698D01*
X20156134Y-10847984D02*
X20137087Y-10838460D01*
X20137087Y-10838460D02*
X20127563Y-10828936D01*
X20127563Y-10828936D02*
X20118039Y-10809889D01*
X20118039Y-10809889D02*
X20118039Y-10752746D01*
X20118039Y-10752746D02*
X20127563Y-10733698D01*
X20127563Y-10733698D02*
X20137087Y-10724174D01*
X20137087Y-10724174D02*
X20156134Y-10714650D01*
X20156134Y-10714650D02*
X20184706Y-10714650D01*
X20184706Y-10714650D02*
X20203753Y-10724174D01*
X20203753Y-10724174D02*
X20213277Y-10733698D01*
X20213277Y-10733698D02*
X20222801Y-10752746D01*
X20222801Y-10752746D02*
X20222801Y-10809889D01*
X20222801Y-10809889D02*
X20213277Y-10828936D01*
X20213277Y-10828936D02*
X20203753Y-10838460D01*
X20203753Y-10838460D02*
X20184706Y-10847984D01*
X20184706Y-10847984D02*
X20156134Y-10847984D01*
X20337087Y-10847984D02*
X20318039Y-10838460D01*
X20318039Y-10838460D02*
X20308515Y-10819412D01*
X20308515Y-10819412D02*
X20308515Y-10647984D01*
X20489468Y-10838460D02*
X20470420Y-10847984D01*
X20470420Y-10847984D02*
X20432325Y-10847984D01*
X20432325Y-10847984D02*
X20413277Y-10838460D01*
X20413277Y-10838460D02*
X20403753Y-10819412D01*
X20403753Y-10819412D02*
X20403753Y-10743222D01*
X20403753Y-10743222D02*
X20413277Y-10724174D01*
X20413277Y-10724174D02*
X20432325Y-10714650D01*
X20432325Y-10714650D02*
X20470420Y-10714650D01*
X20470420Y-10714650D02*
X20489468Y-10724174D01*
X20489468Y-10724174D02*
X20498992Y-10743222D01*
X20498992Y-10743222D02*
X20498992Y-10762270D01*
X20498992Y-10762270D02*
X20403753Y-10781317D01*
X20575182Y-10838460D02*
X20594230Y-10847984D01*
X20594230Y-10847984D02*
X20632325Y-10847984D01*
X20632325Y-10847984D02*
X20651373Y-10838460D01*
X20651373Y-10838460D02*
X20660896Y-10819412D01*
X20660896Y-10819412D02*
X20660896Y-10809889D01*
X20660896Y-10809889D02*
X20651373Y-10790841D01*
X20651373Y-10790841D02*
X20632325Y-10781317D01*
X20632325Y-10781317D02*
X20603753Y-10781317D01*
X20603753Y-10781317D02*
X20584706Y-10771793D01*
X20584706Y-10771793D02*
X20575182Y-10752746D01*
X20575182Y-10752746D02*
X20575182Y-10743222D01*
X20575182Y-10743222D02*
X20584706Y-10724174D01*
X20584706Y-10724174D02*
X20603753Y-10714650D01*
X20603753Y-10714650D02*
X20632325Y-10714650D01*
X20632325Y-10714650D02*
X20651373Y-10724174D01*
X20727563Y-10924174D02*
X20737087Y-10914650D01*
X20737087Y-10914650D02*
X20756134Y-10886079D01*
X20756134Y-10886079D02*
X20765658Y-10867031D01*
X20765658Y-10867031D02*
X20775182Y-10838460D01*
X20775182Y-10838460D02*
X20784706Y-10790841D01*
X20784706Y-10790841D02*
X20784706Y-10752746D01*
X20784706Y-10752746D02*
X20775182Y-10705127D01*
X20775182Y-10705127D02*
X20765658Y-10676555D01*
X20765658Y-10676555D02*
X20756134Y-10657508D01*
X20756134Y-10657508D02*
X20737087Y-10628936D01*
X20737087Y-10628936D02*
X20727563Y-10619412D01*
M02*
