%TF.GenerationSoftware,KiCad,Pcbnew,8.0.3*%
%TF.CreationDate,2025-01-03T03:49:26-05:00*%
%TF.ProjectId,Ni-MH-Chromatic,4e692d4d-482d-4436-9872-6f6d61746963,rev?*%
%TF.SameCoordinates,Original*%
%TF.FileFunction,Paste,Top*%
%TF.FilePolarity,Positive*%
%FSLAX46Y46*%
G04 Gerber Fmt 4.6, Leading zero omitted, Abs format (unit mm)*
G04 Created by KiCad (PCBNEW 8.0.3) date 2025-01-03 03:49:26*
%MOMM*%
%LPD*%
G01*
G04 APERTURE LIST*
G04 Aperture macros list*
%AMRoundRect*
0 Rectangle with rounded corners*
0 $1 Rounding radius*
0 $2 $3 $4 $5 $6 $7 $8 $9 X,Y pos of 4 corners*
0 Add a 4 corners polygon primitive as box body*
4,1,4,$2,$3,$4,$5,$6,$7,$8,$9,$2,$3,0*
0 Add four circle primitives for the rounded corners*
1,1,$1+$1,$2,$3*
1,1,$1+$1,$4,$5*
1,1,$1+$1,$6,$7*
1,1,$1+$1,$8,$9*
0 Add four rect primitives between the rounded corners*
20,1,$1+$1,$2,$3,$4,$5,0*
20,1,$1+$1,$4,$5,$6,$7,0*
20,1,$1+$1,$6,$7,$8,$9,0*
20,1,$1+$1,$8,$9,$2,$3,0*%
G04 Aperture macros list end*
%ADD10C,0.010000*%
%ADD11RoundRect,0.155000X0.212500X0.155000X-0.212500X0.155000X-0.212500X-0.155000X0.212500X-0.155000X0*%
%ADD12RoundRect,0.155000X-0.212500X-0.155000X0.212500X-0.155000X0.212500X0.155000X-0.212500X0.155000X0*%
%ADD13RoundRect,0.050000X-0.200000X-0.075000X0.200000X-0.075000X0.200000X0.075000X-0.200000X0.075000X0*%
%ADD14RoundRect,0.160000X-0.197500X-0.160000X0.197500X-0.160000X0.197500X0.160000X-0.197500X0.160000X0*%
%ADD15RoundRect,0.160000X0.160000X-0.197500X0.160000X0.197500X-0.160000X0.197500X-0.160000X-0.197500X0*%
%ADD16RoundRect,0.160000X0.197500X0.160000X-0.197500X0.160000X-0.197500X-0.160000X0.197500X-0.160000X0*%
%ADD17RoundRect,0.160000X0.222500X0.160000X-0.222500X0.160000X-0.222500X-0.160000X0.222500X-0.160000X0*%
G04 APERTURE END LIST*
D10*
%TO.C,U1*%
X164933000Y-94876000D02*
X164935000Y-94876000D01*
X164938000Y-94877000D01*
X164940000Y-94877000D01*
X164943000Y-94878000D01*
X164945000Y-94879000D01*
X164948000Y-94880000D01*
X164950000Y-94882000D01*
X164952000Y-94883000D01*
X164954000Y-94885000D01*
X164956000Y-94886000D01*
X164958000Y-94888000D01*
X164960000Y-94890000D01*
X164962000Y-94892000D01*
X164964000Y-94894000D01*
X164965000Y-94896000D01*
X164967000Y-94898000D01*
X164968000Y-94900000D01*
X164970000Y-94902000D01*
X164971000Y-94905000D01*
X164972000Y-94907000D01*
X164973000Y-94910000D01*
X164973000Y-94912000D01*
X164974000Y-94915000D01*
X164974000Y-94917000D01*
X164975000Y-94920000D01*
X164975000Y-94922000D01*
X164975000Y-94925000D01*
X164975000Y-95525000D01*
X164975000Y-95528000D01*
X164975000Y-95530000D01*
X164974000Y-95533000D01*
X164974000Y-95535000D01*
X164973000Y-95538000D01*
X164973000Y-95540000D01*
X164972000Y-95543000D01*
X164971000Y-95545000D01*
X164970000Y-95548000D01*
X164968000Y-95550000D01*
X164967000Y-95552000D01*
X164965000Y-95554000D01*
X164964000Y-95556000D01*
X164962000Y-95558000D01*
X164960000Y-95560000D01*
X164958000Y-95562000D01*
X164956000Y-95564000D01*
X164954000Y-95565000D01*
X164952000Y-95567000D01*
X164950000Y-95568000D01*
X164948000Y-95570000D01*
X164945000Y-95571000D01*
X164943000Y-95572000D01*
X164940000Y-95573000D01*
X164938000Y-95573000D01*
X164935000Y-95574000D01*
X164933000Y-95574000D01*
X164930000Y-95575000D01*
X164928000Y-95575000D01*
X164925000Y-95575000D01*
X164125000Y-95575000D01*
X164122000Y-95575000D01*
X164120000Y-95575000D01*
X164117000Y-95574000D01*
X164115000Y-95574000D01*
X164112000Y-95573000D01*
X164110000Y-95573000D01*
X164107000Y-95572000D01*
X164105000Y-95571000D01*
X164102000Y-95570000D01*
X164100000Y-95568000D01*
X164098000Y-95567000D01*
X164096000Y-95565000D01*
X164094000Y-95564000D01*
X164092000Y-95562000D01*
X164090000Y-95560000D01*
X164088000Y-95558000D01*
X164086000Y-95556000D01*
X164085000Y-95554000D01*
X164083000Y-95552000D01*
X164082000Y-95550000D01*
X164080000Y-95548000D01*
X164079000Y-95545000D01*
X164078000Y-95543000D01*
X164077000Y-95540000D01*
X164077000Y-95538000D01*
X164076000Y-95535000D01*
X164076000Y-95533000D01*
X164075000Y-95530000D01*
X164075000Y-95528000D01*
X164075000Y-95525000D01*
X164075000Y-94925000D01*
X164075000Y-94922000D01*
X164075000Y-94920000D01*
X164076000Y-94917000D01*
X164076000Y-94915000D01*
X164077000Y-94912000D01*
X164077000Y-94910000D01*
X164078000Y-94907000D01*
X164079000Y-94905000D01*
X164080000Y-94902000D01*
X164082000Y-94900000D01*
X164083000Y-94898000D01*
X164085000Y-94896000D01*
X164086000Y-94894000D01*
X164088000Y-94892000D01*
X164090000Y-94890000D01*
X164092000Y-94888000D01*
X164094000Y-94886000D01*
X164096000Y-94885000D01*
X164098000Y-94883000D01*
X164100000Y-94882000D01*
X164102000Y-94880000D01*
X164105000Y-94879000D01*
X164107000Y-94878000D01*
X164110000Y-94877000D01*
X164112000Y-94877000D01*
X164115000Y-94876000D01*
X164117000Y-94876000D01*
X164120000Y-94875000D01*
X164122000Y-94875000D01*
X164125000Y-94875000D01*
X164925000Y-94875000D01*
X164928000Y-94875000D01*
X164930000Y-94875000D01*
X164933000Y-94876000D01*
G36*
X164933000Y-94876000D02*
G01*
X164935000Y-94876000D01*
X164938000Y-94877000D01*
X164940000Y-94877000D01*
X164943000Y-94878000D01*
X164945000Y-94879000D01*
X164948000Y-94880000D01*
X164950000Y-94882000D01*
X164952000Y-94883000D01*
X164954000Y-94885000D01*
X164956000Y-94886000D01*
X164958000Y-94888000D01*
X164960000Y-94890000D01*
X164962000Y-94892000D01*
X164964000Y-94894000D01*
X164965000Y-94896000D01*
X164967000Y-94898000D01*
X164968000Y-94900000D01*
X164970000Y-94902000D01*
X164971000Y-94905000D01*
X164972000Y-94907000D01*
X164973000Y-94910000D01*
X164973000Y-94912000D01*
X164974000Y-94915000D01*
X164974000Y-94917000D01*
X164975000Y-94920000D01*
X164975000Y-94922000D01*
X164975000Y-94925000D01*
X164975000Y-95525000D01*
X164975000Y-95528000D01*
X164975000Y-95530000D01*
X164974000Y-95533000D01*
X164974000Y-95535000D01*
X164973000Y-95538000D01*
X164973000Y-95540000D01*
X164972000Y-95543000D01*
X164971000Y-95545000D01*
X164970000Y-95548000D01*
X164968000Y-95550000D01*
X164967000Y-95552000D01*
X164965000Y-95554000D01*
X164964000Y-95556000D01*
X164962000Y-95558000D01*
X164960000Y-95560000D01*
X164958000Y-95562000D01*
X164956000Y-95564000D01*
X164954000Y-95565000D01*
X164952000Y-95567000D01*
X164950000Y-95568000D01*
X164948000Y-95570000D01*
X164945000Y-95571000D01*
X164943000Y-95572000D01*
X164940000Y-95573000D01*
X164938000Y-95573000D01*
X164935000Y-95574000D01*
X164933000Y-95574000D01*
X164930000Y-95575000D01*
X164928000Y-95575000D01*
X164925000Y-95575000D01*
X164125000Y-95575000D01*
X164122000Y-95575000D01*
X164120000Y-95575000D01*
X164117000Y-95574000D01*
X164115000Y-95574000D01*
X164112000Y-95573000D01*
X164110000Y-95573000D01*
X164107000Y-95572000D01*
X164105000Y-95571000D01*
X164102000Y-95570000D01*
X164100000Y-95568000D01*
X164098000Y-95567000D01*
X164096000Y-95565000D01*
X164094000Y-95564000D01*
X164092000Y-95562000D01*
X164090000Y-95560000D01*
X164088000Y-95558000D01*
X164086000Y-95556000D01*
X164085000Y-95554000D01*
X164083000Y-95552000D01*
X164082000Y-95550000D01*
X164080000Y-95548000D01*
X164079000Y-95545000D01*
X164078000Y-95543000D01*
X164077000Y-95540000D01*
X164077000Y-95538000D01*
X164076000Y-95535000D01*
X164076000Y-95533000D01*
X164075000Y-95530000D01*
X164075000Y-95528000D01*
X164075000Y-95525000D01*
X164075000Y-94925000D01*
X164075000Y-94922000D01*
X164075000Y-94920000D01*
X164076000Y-94917000D01*
X164076000Y-94915000D01*
X164077000Y-94912000D01*
X164077000Y-94910000D01*
X164078000Y-94907000D01*
X164079000Y-94905000D01*
X164080000Y-94902000D01*
X164082000Y-94900000D01*
X164083000Y-94898000D01*
X164085000Y-94896000D01*
X164086000Y-94894000D01*
X164088000Y-94892000D01*
X164090000Y-94890000D01*
X164092000Y-94888000D01*
X164094000Y-94886000D01*
X164096000Y-94885000D01*
X164098000Y-94883000D01*
X164100000Y-94882000D01*
X164102000Y-94880000D01*
X164105000Y-94879000D01*
X164107000Y-94878000D01*
X164110000Y-94877000D01*
X164112000Y-94877000D01*
X164115000Y-94876000D01*
X164117000Y-94876000D01*
X164120000Y-94875000D01*
X164122000Y-94875000D01*
X164125000Y-94875000D01*
X164925000Y-94875000D01*
X164928000Y-94875000D01*
X164930000Y-94875000D01*
X164933000Y-94876000D01*
G37*
X164933000Y-95776000D02*
X164935000Y-95776000D01*
X164938000Y-95777000D01*
X164940000Y-95777000D01*
X164943000Y-95778000D01*
X164945000Y-95779000D01*
X164948000Y-95780000D01*
X164950000Y-95782000D01*
X164952000Y-95783000D01*
X164954000Y-95785000D01*
X164956000Y-95786000D01*
X164958000Y-95788000D01*
X164960000Y-95790000D01*
X164962000Y-95792000D01*
X164964000Y-95794000D01*
X164965000Y-95796000D01*
X164967000Y-95798000D01*
X164968000Y-95800000D01*
X164970000Y-95802000D01*
X164971000Y-95805000D01*
X164972000Y-95807000D01*
X164973000Y-95810000D01*
X164973000Y-95812000D01*
X164974000Y-95815000D01*
X164974000Y-95817000D01*
X164975000Y-95820000D01*
X164975000Y-95822000D01*
X164975000Y-95825000D01*
X164975000Y-96425000D01*
X164975000Y-96428000D01*
X164975000Y-96430000D01*
X164974000Y-96433000D01*
X164974000Y-96435000D01*
X164973000Y-96438000D01*
X164973000Y-96440000D01*
X164972000Y-96443000D01*
X164971000Y-96445000D01*
X164970000Y-96448000D01*
X164968000Y-96450000D01*
X164967000Y-96452000D01*
X164965000Y-96454000D01*
X164964000Y-96456000D01*
X164962000Y-96458000D01*
X164960000Y-96460000D01*
X164958000Y-96462000D01*
X164956000Y-96464000D01*
X164954000Y-96465000D01*
X164952000Y-96467000D01*
X164950000Y-96468000D01*
X164948000Y-96470000D01*
X164945000Y-96471000D01*
X164943000Y-96472000D01*
X164940000Y-96473000D01*
X164938000Y-96473000D01*
X164935000Y-96474000D01*
X164933000Y-96474000D01*
X164930000Y-96475000D01*
X164928000Y-96475000D01*
X164925000Y-96475000D01*
X164125000Y-96475000D01*
X164122000Y-96475000D01*
X164120000Y-96475000D01*
X164117000Y-96474000D01*
X164115000Y-96474000D01*
X164112000Y-96473000D01*
X164110000Y-96473000D01*
X164107000Y-96472000D01*
X164105000Y-96471000D01*
X164102000Y-96470000D01*
X164100000Y-96468000D01*
X164098000Y-96467000D01*
X164096000Y-96465000D01*
X164094000Y-96464000D01*
X164092000Y-96462000D01*
X164090000Y-96460000D01*
X164088000Y-96458000D01*
X164086000Y-96456000D01*
X164085000Y-96454000D01*
X164083000Y-96452000D01*
X164082000Y-96450000D01*
X164080000Y-96448000D01*
X164079000Y-96445000D01*
X164078000Y-96443000D01*
X164077000Y-96440000D01*
X164077000Y-96438000D01*
X164076000Y-96435000D01*
X164076000Y-96433000D01*
X164075000Y-96430000D01*
X164075000Y-96428000D01*
X164075000Y-96425000D01*
X164075000Y-95825000D01*
X164075000Y-95822000D01*
X164075000Y-95820000D01*
X164076000Y-95817000D01*
X164076000Y-95815000D01*
X164077000Y-95812000D01*
X164077000Y-95810000D01*
X164078000Y-95807000D01*
X164079000Y-95805000D01*
X164080000Y-95802000D01*
X164082000Y-95800000D01*
X164083000Y-95798000D01*
X164085000Y-95796000D01*
X164086000Y-95794000D01*
X164088000Y-95792000D01*
X164090000Y-95790000D01*
X164092000Y-95788000D01*
X164094000Y-95786000D01*
X164096000Y-95785000D01*
X164098000Y-95783000D01*
X164100000Y-95782000D01*
X164102000Y-95780000D01*
X164105000Y-95779000D01*
X164107000Y-95778000D01*
X164110000Y-95777000D01*
X164112000Y-95777000D01*
X164115000Y-95776000D01*
X164117000Y-95776000D01*
X164120000Y-95775000D01*
X164122000Y-95775000D01*
X164125000Y-95775000D01*
X164925000Y-95775000D01*
X164928000Y-95775000D01*
X164930000Y-95775000D01*
X164933000Y-95776000D01*
G36*
X164933000Y-95776000D02*
G01*
X164935000Y-95776000D01*
X164938000Y-95777000D01*
X164940000Y-95777000D01*
X164943000Y-95778000D01*
X164945000Y-95779000D01*
X164948000Y-95780000D01*
X164950000Y-95782000D01*
X164952000Y-95783000D01*
X164954000Y-95785000D01*
X164956000Y-95786000D01*
X164958000Y-95788000D01*
X164960000Y-95790000D01*
X164962000Y-95792000D01*
X164964000Y-95794000D01*
X164965000Y-95796000D01*
X164967000Y-95798000D01*
X164968000Y-95800000D01*
X164970000Y-95802000D01*
X164971000Y-95805000D01*
X164972000Y-95807000D01*
X164973000Y-95810000D01*
X164973000Y-95812000D01*
X164974000Y-95815000D01*
X164974000Y-95817000D01*
X164975000Y-95820000D01*
X164975000Y-95822000D01*
X164975000Y-95825000D01*
X164975000Y-96425000D01*
X164975000Y-96428000D01*
X164975000Y-96430000D01*
X164974000Y-96433000D01*
X164974000Y-96435000D01*
X164973000Y-96438000D01*
X164973000Y-96440000D01*
X164972000Y-96443000D01*
X164971000Y-96445000D01*
X164970000Y-96448000D01*
X164968000Y-96450000D01*
X164967000Y-96452000D01*
X164965000Y-96454000D01*
X164964000Y-96456000D01*
X164962000Y-96458000D01*
X164960000Y-96460000D01*
X164958000Y-96462000D01*
X164956000Y-96464000D01*
X164954000Y-96465000D01*
X164952000Y-96467000D01*
X164950000Y-96468000D01*
X164948000Y-96470000D01*
X164945000Y-96471000D01*
X164943000Y-96472000D01*
X164940000Y-96473000D01*
X164938000Y-96473000D01*
X164935000Y-96474000D01*
X164933000Y-96474000D01*
X164930000Y-96475000D01*
X164928000Y-96475000D01*
X164925000Y-96475000D01*
X164125000Y-96475000D01*
X164122000Y-96475000D01*
X164120000Y-96475000D01*
X164117000Y-96474000D01*
X164115000Y-96474000D01*
X164112000Y-96473000D01*
X164110000Y-96473000D01*
X164107000Y-96472000D01*
X164105000Y-96471000D01*
X164102000Y-96470000D01*
X164100000Y-96468000D01*
X164098000Y-96467000D01*
X164096000Y-96465000D01*
X164094000Y-96464000D01*
X164092000Y-96462000D01*
X164090000Y-96460000D01*
X164088000Y-96458000D01*
X164086000Y-96456000D01*
X164085000Y-96454000D01*
X164083000Y-96452000D01*
X164082000Y-96450000D01*
X164080000Y-96448000D01*
X164079000Y-96445000D01*
X164078000Y-96443000D01*
X164077000Y-96440000D01*
X164077000Y-96438000D01*
X164076000Y-96435000D01*
X164076000Y-96433000D01*
X164075000Y-96430000D01*
X164075000Y-96428000D01*
X164075000Y-96425000D01*
X164075000Y-95825000D01*
X164075000Y-95822000D01*
X164075000Y-95820000D01*
X164076000Y-95817000D01*
X164076000Y-95815000D01*
X164077000Y-95812000D01*
X164077000Y-95810000D01*
X164078000Y-95807000D01*
X164079000Y-95805000D01*
X164080000Y-95802000D01*
X164082000Y-95800000D01*
X164083000Y-95798000D01*
X164085000Y-95796000D01*
X164086000Y-95794000D01*
X164088000Y-95792000D01*
X164090000Y-95790000D01*
X164092000Y-95788000D01*
X164094000Y-95786000D01*
X164096000Y-95785000D01*
X164098000Y-95783000D01*
X164100000Y-95782000D01*
X164102000Y-95780000D01*
X164105000Y-95779000D01*
X164107000Y-95778000D01*
X164110000Y-95777000D01*
X164112000Y-95777000D01*
X164115000Y-95776000D01*
X164117000Y-95776000D01*
X164120000Y-95775000D01*
X164122000Y-95775000D01*
X164125000Y-95775000D01*
X164925000Y-95775000D01*
X164928000Y-95775000D01*
X164930000Y-95775000D01*
X164933000Y-95776000D01*
G37*
%TD*%
D11*
%TO.C,C1*%
X162542500Y-94625000D03*
X161407500Y-94625000D03*
%TD*%
D12*
%TO.C,C2*%
X166507500Y-94625000D03*
X167642500Y-94625000D03*
%TD*%
D13*
%TO.C,U1*%
X163575000Y-94925000D03*
X163575000Y-95425000D03*
X163575000Y-95925000D03*
X163575000Y-96425000D03*
X165475000Y-96425000D03*
X165475000Y-95925000D03*
X165475000Y-95425000D03*
X165475000Y-94925000D03*
%TD*%
D14*
%TO.C,R2*%
X166507500Y-95625000D03*
X167702500Y-95625000D03*
%TD*%
D15*
%TO.C,R1*%
X160375000Y-96747500D03*
X160375000Y-95552500D03*
%TD*%
D16*
%TO.C,R4*%
X167702500Y-96625000D03*
X166507500Y-96625000D03*
%TD*%
D14*
%TO.C,R3*%
X161347500Y-96625000D03*
X162542500Y-96625000D03*
%TD*%
D17*
%TO.C,D1*%
X165097500Y-97675000D03*
X163952500Y-97675000D03*
%TD*%
D14*
%TO.C,R5*%
X161347500Y-95625000D03*
X162542500Y-95625000D03*
%TD*%
M02*
