%TF.GenerationSoftware,KiCad,Pcbnew,8.0.3*%
%TF.CreationDate,2025-01-03T03:50:19-05:00*%
%TF.ProjectId,Ni-MH-Chromatic,4e692d4d-482d-4436-9872-6f6d61746963,rev?*%
%TF.SameCoordinates,Original*%
%TF.FileFunction,Drillmap*%
%TF.FilePolarity,Positive*%
%FSLAX45Y45*%
G04 Gerber Fmt 4.5, Leading zero omitted, Abs format (unit mm)*
G04 Created by KiCad (PCBNEW 8.0.3) date 2025-01-03 03:50:19*
%MOMM*%
%LPD*%
G01*
G04 APERTURE LIST*
%ADD10C,0.050000*%
%ADD11C,0.200000*%
G04 APERTURE END LIST*
D10*
X15955000Y-8850000D02*
X16955000Y-8850000D01*
X16955000Y-9850000D01*
X15955000Y-9850000D01*
X15955000Y-8850000D01*
D11*
X16213277Y-10163984D02*
X16213277Y-9963984D01*
X16213277Y-9963984D02*
X16260896Y-9963984D01*
X16260896Y-9963984D02*
X16289467Y-9973508D01*
X16289467Y-9973508D02*
X16308515Y-9992555D01*
X16308515Y-9992555D02*
X16318039Y-10011603D01*
X16318039Y-10011603D02*
X16327562Y-10049698D01*
X16327562Y-10049698D02*
X16327562Y-10078270D01*
X16327562Y-10078270D02*
X16318039Y-10116365D01*
X16318039Y-10116365D02*
X16308515Y-10135412D01*
X16308515Y-10135412D02*
X16289467Y-10154460D01*
X16289467Y-10154460D02*
X16260896Y-10163984D01*
X16260896Y-10163984D02*
X16213277Y-10163984D01*
X16413277Y-10163984D02*
X16413277Y-10030650D01*
X16413277Y-10068746D02*
X16422801Y-10049698D01*
X16422801Y-10049698D02*
X16432324Y-10040174D01*
X16432324Y-10040174D02*
X16451372Y-10030650D01*
X16451372Y-10030650D02*
X16470420Y-10030650D01*
X16537086Y-10163984D02*
X16537086Y-10030650D01*
X16537086Y-9963984D02*
X16527562Y-9973508D01*
X16527562Y-9973508D02*
X16537086Y-9983031D01*
X16537086Y-9983031D02*
X16546610Y-9973508D01*
X16546610Y-9973508D02*
X16537086Y-9963984D01*
X16537086Y-9963984D02*
X16537086Y-9983031D01*
X16660896Y-10163984D02*
X16641848Y-10154460D01*
X16641848Y-10154460D02*
X16632324Y-10135412D01*
X16632324Y-10135412D02*
X16632324Y-9963984D01*
X16765658Y-10163984D02*
X16746610Y-10154460D01*
X16746610Y-10154460D02*
X16737086Y-10135412D01*
X16737086Y-10135412D02*
X16737086Y-9963984D01*
X16994229Y-10163984D02*
X16994229Y-9963984D01*
X16994229Y-9963984D02*
X17060896Y-10106841D01*
X17060896Y-10106841D02*
X17127563Y-9963984D01*
X17127563Y-9963984D02*
X17127563Y-10163984D01*
X17308515Y-10163984D02*
X17308515Y-10059222D01*
X17308515Y-10059222D02*
X17298991Y-10040174D01*
X17298991Y-10040174D02*
X17279944Y-10030650D01*
X17279944Y-10030650D02*
X17241848Y-10030650D01*
X17241848Y-10030650D02*
X17222801Y-10040174D01*
X17308515Y-10154460D02*
X17289467Y-10163984D01*
X17289467Y-10163984D02*
X17241848Y-10163984D01*
X17241848Y-10163984D02*
X17222801Y-10154460D01*
X17222801Y-10154460D02*
X17213277Y-10135412D01*
X17213277Y-10135412D02*
X17213277Y-10116365D01*
X17213277Y-10116365D02*
X17222801Y-10097317D01*
X17222801Y-10097317D02*
X17241848Y-10087793D01*
X17241848Y-10087793D02*
X17289467Y-10087793D01*
X17289467Y-10087793D02*
X17308515Y-10078270D01*
X17403753Y-10030650D02*
X17403753Y-10230650D01*
X17403753Y-10040174D02*
X17422801Y-10030650D01*
X17422801Y-10030650D02*
X17460896Y-10030650D01*
X17460896Y-10030650D02*
X17479944Y-10040174D01*
X17479944Y-10040174D02*
X17489467Y-10049698D01*
X17489467Y-10049698D02*
X17498991Y-10068746D01*
X17498991Y-10068746D02*
X17498991Y-10125889D01*
X17498991Y-10125889D02*
X17489467Y-10144936D01*
X17489467Y-10144936D02*
X17479944Y-10154460D01*
X17479944Y-10154460D02*
X17460896Y-10163984D01*
X17460896Y-10163984D02*
X17422801Y-10163984D01*
X17422801Y-10163984D02*
X17403753Y-10154460D01*
X17584705Y-10144936D02*
X17594229Y-10154460D01*
X17594229Y-10154460D02*
X17584705Y-10163984D01*
X17584705Y-10163984D02*
X17575182Y-10154460D01*
X17575182Y-10154460D02*
X17584705Y-10144936D01*
X17584705Y-10144936D02*
X17584705Y-10163984D01*
X17584705Y-10040174D02*
X17594229Y-10049698D01*
X17594229Y-10049698D02*
X17584705Y-10059222D01*
X17584705Y-10059222D02*
X17575182Y-10049698D01*
X17575182Y-10049698D02*
X17584705Y-10040174D01*
X17584705Y-10040174D02*
X17584705Y-10059222D01*
M02*
