%TF.GenerationSoftware,KiCad,Pcbnew,8.0.3*%
%TF.CreationDate,2025-01-03T03:00:48-05:00*%
%TF.ProjectId,Ni-MH-Chromatic,4e692d4d-482d-4436-9872-6f6d61746963,rev?*%
%TF.SameCoordinates,Original*%
%TF.FileFunction,Copper,L1,Top*%
%TF.FilePolarity,Positive*%
%FSLAX46Y46*%
G04 Gerber Fmt 4.6, Leading zero omitted, Abs format (unit mm)*
G04 Created by KiCad (PCBNEW 8.0.3) date 2025-01-03 03:00:48*
%MOMM*%
%LPD*%
G01*
G04 APERTURE LIST*
G04 Aperture macros list*
%AMRoundRect*
0 Rectangle with rounded corners*
0 $1 Rounding radius*
0 $2 $3 $4 $5 $6 $7 $8 $9 X,Y pos of 4 corners*
0 Add a 4 corners polygon primitive as box body*
4,1,4,$2,$3,$4,$5,$6,$7,$8,$9,$2,$3,0*
0 Add four circle primitives for the rounded corners*
1,1,$1+$1,$2,$3*
1,1,$1+$1,$4,$5*
1,1,$1+$1,$6,$7*
1,1,$1+$1,$8,$9*
0 Add four rect primitives between the rounded corners*
20,1,$1+$1,$2,$3,$4,$5,0*
20,1,$1+$1,$4,$5,$6,$7,0*
20,1,$1+$1,$6,$7,$8,$9,0*
20,1,$1+$1,$8,$9,$2,$3,0*%
G04 Aperture macros list end*
%TA.AperFunction,SMDPad,CuDef*%
%ADD10RoundRect,0.155000X0.212500X0.155000X-0.212500X0.155000X-0.212500X-0.155000X0.212500X-0.155000X0*%
%TD*%
%TA.AperFunction,SMDPad,CuDef*%
%ADD11RoundRect,0.155000X-0.212500X-0.155000X0.212500X-0.155000X0.212500X0.155000X-0.212500X0.155000X0*%
%TD*%
%TA.AperFunction,SMDPad,CuDef*%
%ADD12RoundRect,0.050000X-0.200000X-0.075000X0.200000X-0.075000X0.200000X0.075000X-0.200000X0.075000X0*%
%TD*%
%TA.AperFunction,SMDPad,CuDef*%
%ADD13RoundRect,0.054000X-0.396000X-0.746000X0.396000X-0.746000X0.396000X0.746000X-0.396000X0.746000X0*%
%TD*%
%TA.AperFunction,ComponentPad*%
%ADD14C,0.600000*%
%TD*%
%TA.AperFunction,TestPad*%
%ADD15RoundRect,0.500000X-0.750000X-2.000000X0.750000X-2.000000X0.750000X2.000000X-0.750000X2.000000X0*%
%TD*%
%TA.AperFunction,SMDPad,CuDef*%
%ADD16RoundRect,0.160000X-0.197500X-0.160000X0.197500X-0.160000X0.197500X0.160000X-0.197500X0.160000X0*%
%TD*%
%TA.AperFunction,SMDPad,CuDef*%
%ADD17RoundRect,0.160000X0.160000X-0.197500X0.160000X0.197500X-0.160000X0.197500X-0.160000X-0.197500X0*%
%TD*%
%TA.AperFunction,TestPad*%
%ADD18RoundRect,0.500000X0.750000X2.000000X-0.750000X2.000000X-0.750000X-2.000000X0.750000X-2.000000X0*%
%TD*%
%TA.AperFunction,SMDPad,CuDef*%
%ADD19RoundRect,0.160000X0.197500X0.160000X-0.197500X0.160000X-0.197500X-0.160000X0.197500X-0.160000X0*%
%TD*%
%TA.AperFunction,SMDPad,CuDef*%
%ADD20RoundRect,0.160000X0.222500X0.160000X-0.222500X0.160000X-0.222500X-0.160000X0.222500X-0.160000X0*%
%TD*%
%TA.AperFunction,ViaPad*%
%ADD21C,0.600000*%
%TD*%
%TA.AperFunction,Conductor*%
%ADD22C,0.200000*%
%TD*%
%TA.AperFunction,Conductor*%
%ADD23C,0.250000*%
%TD*%
G04 APERTURE END LIST*
D10*
%TO.P,C1,1*%
%TO.N,+5V*%
X162542500Y-94625000D03*
%TO.P,C1,2*%
%TO.N,GND*%
X161407500Y-94625000D03*
%TD*%
D11*
%TO.P,C2,1*%
%TO.N,+BATT*%
X166507500Y-94625000D03*
%TO.P,C2,2*%
%TO.N,GND*%
X167642500Y-94625000D03*
%TD*%
D12*
%TO.P,U1,1,IN*%
%TO.N,+5V*%
X163575000Y-94925000D03*
%TO.P,U1,2,ISET*%
%TO.N,Net-(U1-ISET)*%
X163575000Y-95425000D03*
%TO.P,U1,3,TS*%
%TO.N,Net-(U1-TS)*%
X163575000Y-95925000D03*
%TO.P,U1,4,GND*%
%TO.N,GND*%
X163575000Y-96425000D03*
%TO.P,U1,5,STAT*%
%TO.N,Net-(D1-K)*%
X165475000Y-96425000D03*
%TO.P,U1,6,TMR*%
%TO.N,Net-(U1-TMR)*%
X165475000Y-95925000D03*
%TO.P,U1,7,VSET*%
%TO.N,Net-(U1-VSET)*%
X165475000Y-95425000D03*
%TO.P,U1,8,OUT*%
%TO.N,+BATT*%
X165475000Y-94925000D03*
D13*
%TO.P,U1,9,EXP*%
%TO.N,GND*%
X164525000Y-95675000D03*
D14*
%TO.P,U1,10,GND/THERMAL*%
X164525000Y-95125000D03*
%TO.P,U1,11,GND/THERMAL*%
X164525000Y-96225000D03*
%TD*%
D15*
%TO.P,TP3,1,1*%
%TO.N,+BATT*%
X167800000Y-91500000D03*
%TD*%
D16*
%TO.P,R2,1*%
%TO.N,Net-(U1-VSET)*%
X166507500Y-95625000D03*
%TO.P,R2,2*%
%TO.N,GND*%
X167702500Y-95625000D03*
%TD*%
D17*
%TO.P,R1,1*%
%TO.N,Net-(D1-A)*%
X160375000Y-96747500D03*
%TO.P,R1,2*%
%TO.N,+5V*%
X160375000Y-95552500D03*
%TD*%
D18*
%TO.P,TP2,1,1*%
%TO.N,GND*%
X164560000Y-91500000D03*
%TD*%
D19*
%TO.P,R4,1*%
%TO.N,GND*%
X167702500Y-96625000D03*
%TO.P,R4,2*%
%TO.N,Net-(U1-TMR)*%
X166507500Y-96625000D03*
%TD*%
D16*
%TO.P,R3,1*%
%TO.N,GND*%
X161347500Y-96625000D03*
%TO.P,R3,2*%
%TO.N,Net-(U1-TS)*%
X162542500Y-96625000D03*
%TD*%
D20*
%TO.P,D1,1,K*%
%TO.N,Net-(D1-K)*%
X165097500Y-97675000D03*
%TO.P,D1,2,A*%
%TO.N,Net-(D1-A)*%
X163952500Y-97675000D03*
%TD*%
D16*
%TO.P,R5,1*%
%TO.N,GND*%
X161347500Y-95625000D03*
%TO.P,R5,2*%
%TO.N,Net-(U1-ISET)*%
X162542500Y-95625000D03*
%TD*%
D15*
%TO.P,TP1,1,1*%
%TO.N,+5V*%
X161300000Y-91500000D03*
%TD*%
D21*
%TO.N,GND*%
X165625000Y-94275000D03*
X163482895Y-94300000D03*
X168275000Y-97275000D03*
X163378814Y-96955880D03*
%TD*%
D22*
%TO.N,GND*%
X167642500Y-95565000D02*
X167702500Y-95625000D01*
X161322500Y-96600000D02*
X161175000Y-96600000D01*
X161407500Y-94660000D02*
X161265000Y-94802500D01*
X164560000Y-91500000D02*
X164560000Y-93222895D01*
X165520000Y-93670000D02*
X165520000Y-93660000D01*
X161407500Y-94625000D02*
X161407500Y-94660000D01*
X163378814Y-96955880D02*
X163039694Y-97295000D01*
X163378814Y-96621186D02*
X163575000Y-96425000D01*
X164560000Y-93210000D02*
X164560000Y-91500000D01*
X167642500Y-94625000D02*
X167642500Y-95565000D01*
X165625000Y-94275000D02*
X164560000Y-93210000D01*
X167702500Y-95625000D02*
X167702500Y-96625000D01*
X162017500Y-97295000D02*
X161347500Y-96625000D01*
X161347500Y-96625000D02*
X161322500Y-96600000D01*
X163039694Y-97295000D02*
X162017500Y-97295000D01*
X168275000Y-97275000D02*
X168275000Y-97197500D01*
X164560000Y-93222895D02*
X163482895Y-94300000D01*
X168275000Y-97197500D02*
X167702500Y-96625000D01*
X163378814Y-96955880D02*
X163378814Y-96621186D01*
X161347500Y-96625000D02*
X161347500Y-94685000D01*
X161347500Y-94685000D02*
X161407500Y-94625000D01*
X164560000Y-91500000D02*
X164560000Y-92780700D01*
%TO.N,+5V*%
X162842500Y-94925000D02*
X163575000Y-94925000D01*
D23*
X161300000Y-91500000D02*
X161200000Y-91500000D01*
D22*
X162542500Y-94625000D02*
X162542500Y-94117500D01*
X160375000Y-95552500D02*
X160375000Y-94350000D01*
X162542500Y-94117500D02*
X161950000Y-93525000D01*
D23*
X161300000Y-91500000D02*
X160200000Y-92600000D01*
X161200000Y-91500000D02*
X160175000Y-92525000D01*
D22*
X162542500Y-94625000D02*
X162842500Y-94925000D01*
X160375000Y-94350000D02*
X161225000Y-93500000D01*
%TO.N,+BATT*%
X166507500Y-94625000D02*
X166507500Y-94202500D01*
X166207500Y-94925000D02*
X166507500Y-94625000D01*
X166507500Y-94202500D02*
X167010000Y-93700000D01*
X165475000Y-94925000D02*
X166207500Y-94925000D01*
%TO.N,Net-(D1-K)*%
X165475000Y-96425000D02*
X165475000Y-97297500D01*
X165475000Y-97297500D02*
X165097500Y-97675000D01*
%TO.N,Net-(D1-A)*%
X161220000Y-97695000D02*
X163932500Y-97695000D01*
X160375000Y-96850000D02*
X161220000Y-97695000D01*
X160375000Y-96747500D02*
X160375000Y-96850000D01*
X163932500Y-97695000D02*
X163952500Y-97675000D01*
%TO.N,Net-(U1-VSET)*%
X166550000Y-95650000D02*
X166525000Y-95625000D01*
X165475000Y-95425000D02*
X166307500Y-95425000D01*
X166525000Y-95625000D02*
X166507500Y-95625000D01*
X166307500Y-95425000D02*
X166507500Y-95625000D01*
%TO.N,Net-(U1-TS)*%
X162412472Y-96800000D02*
X162542500Y-96669972D01*
X162554972Y-96625000D02*
X162542500Y-96625000D01*
X162528640Y-96638860D02*
X162542500Y-96625000D01*
X162542500Y-96669972D02*
X162542500Y-96625000D01*
X162509972Y-96800000D02*
X162509972Y-96657528D01*
X162528640Y-96800000D02*
X162528640Y-96638860D01*
X162509972Y-96657528D02*
X162542500Y-96625000D01*
X163254972Y-95925000D02*
X162554972Y-96625000D01*
X163575000Y-95925000D02*
X163254972Y-95925000D01*
%TO.N,Net-(U1-TMR)*%
X166571360Y-96800000D02*
X166571360Y-96688860D01*
X166587528Y-96800000D02*
X166587528Y-96705028D01*
X166600000Y-96900000D02*
X166507500Y-96807500D01*
X166687528Y-96800000D02*
X166682500Y-96800000D01*
X166682500Y-96800000D02*
X166507500Y-96625000D01*
X166587528Y-96705028D02*
X166507500Y-96625000D01*
X165746360Y-95925000D02*
X166446360Y-96625000D01*
X166446360Y-96625000D02*
X166507500Y-96625000D01*
X166507500Y-96807500D02*
X166507500Y-96625000D01*
X166571360Y-96688860D02*
X166507500Y-96625000D01*
X165475000Y-95925000D02*
X165746360Y-95925000D01*
%TO.N,Net-(U1-ISET)*%
X162547500Y-95650000D02*
X162542500Y-95645000D01*
X162542500Y-95645000D02*
X162542500Y-95625000D01*
X162742500Y-95425000D02*
X163575000Y-95425000D01*
X162542500Y-95625000D02*
X162742500Y-95425000D01*
%TD*%
M02*
