%TF.GenerationSoftware,KiCad,Pcbnew,8.0.3*%
%TF.CreationDate,2025-01-03T03:00:48-05:00*%
%TF.ProjectId,Ni-MH-Chromatic,4e692d4d-482d-4436-9872-6f6d61746963,rev?*%
%TF.SameCoordinates,Original*%
%TF.FileFunction,Legend,Bot*%
%TF.FilePolarity,Positive*%
%FSLAX46Y46*%
G04 Gerber Fmt 4.6, Leading zero omitted, Abs format (unit mm)*
G04 Created by KiCad (PCBNEW 8.0.3) date 2025-01-03 03:00:48*
%MOMM*%
%LPD*%
G01*
G04 APERTURE LIST*
%ADD10C,0.150000*%
G04 APERTURE END LIST*
D10*
X168241665Y-89859931D02*
X167622618Y-89859931D01*
X167622618Y-89859931D02*
X167955951Y-90240883D01*
X167955951Y-90240883D02*
X167813094Y-90240883D01*
X167813094Y-90240883D02*
X167717856Y-90288502D01*
X167717856Y-90288502D02*
X167670237Y-90336121D01*
X167670237Y-90336121D02*
X167622618Y-90431359D01*
X167622618Y-90431359D02*
X167622618Y-90669454D01*
X167622618Y-90669454D02*
X167670237Y-90764692D01*
X167670237Y-90764692D02*
X167717856Y-90812312D01*
X167717856Y-90812312D02*
X167813094Y-90859931D01*
X167813094Y-90859931D02*
X168098808Y-90859931D01*
X168098808Y-90859931D02*
X168194046Y-90812312D01*
X168194046Y-90812312D02*
X168241665Y-90764692D01*
X167241665Y-90812312D02*
X167098808Y-90859931D01*
X167098808Y-90859931D02*
X166860713Y-90859931D01*
X166860713Y-90859931D02*
X166765475Y-90812312D01*
X166765475Y-90812312D02*
X166717856Y-90764692D01*
X166717856Y-90764692D02*
X166670237Y-90669454D01*
X166670237Y-90669454D02*
X166670237Y-90574216D01*
X166670237Y-90574216D02*
X166717856Y-90478978D01*
X166717856Y-90478978D02*
X166765475Y-90431359D01*
X166765475Y-90431359D02*
X166860713Y-90383740D01*
X166860713Y-90383740D02*
X167051189Y-90336121D01*
X167051189Y-90336121D02*
X167146427Y-90288502D01*
X167146427Y-90288502D02*
X167194046Y-90240883D01*
X167194046Y-90240883D02*
X167241665Y-90145645D01*
X167241665Y-90145645D02*
X167241665Y-90050407D01*
X167241665Y-90050407D02*
X167194046Y-89955169D01*
X167194046Y-89955169D02*
X167146427Y-89907550D01*
X167146427Y-89907550D02*
X167051189Y-89859931D01*
X167051189Y-89859931D02*
X166813094Y-89859931D01*
X166813094Y-89859931D02*
X166670237Y-89907550D01*
X165479760Y-90859931D02*
X165479760Y-89859931D01*
X165479760Y-89859931D02*
X164908332Y-90859931D01*
X164908332Y-90859931D02*
X164908332Y-89859931D01*
X164432141Y-90859931D02*
X164432141Y-90193264D01*
X164432141Y-89859931D02*
X164479760Y-89907550D01*
X164479760Y-89907550D02*
X164432141Y-89955169D01*
X164432141Y-89955169D02*
X164384522Y-89907550D01*
X164384522Y-89907550D02*
X164432141Y-89859931D01*
X164432141Y-89859931D02*
X164432141Y-89955169D01*
X163955951Y-90478978D02*
X163194047Y-90478978D01*
X162717856Y-90859931D02*
X162717856Y-89859931D01*
X162717856Y-89859931D02*
X162384523Y-90574216D01*
X162384523Y-90574216D02*
X162051190Y-89859931D01*
X162051190Y-89859931D02*
X162051190Y-90859931D01*
X161574999Y-90859931D02*
X161574999Y-89859931D01*
X161574999Y-90336121D02*
X161003571Y-90336121D01*
X161003571Y-90859931D02*
X161003571Y-89859931D01*
X168051191Y-92374636D02*
X168098810Y-92422256D01*
X168098810Y-92422256D02*
X168241667Y-92469875D01*
X168241667Y-92469875D02*
X168336905Y-92469875D01*
X168336905Y-92469875D02*
X168479762Y-92422256D01*
X168479762Y-92422256D02*
X168575000Y-92327017D01*
X168575000Y-92327017D02*
X168622619Y-92231779D01*
X168622619Y-92231779D02*
X168670238Y-92041303D01*
X168670238Y-92041303D02*
X168670238Y-91898446D01*
X168670238Y-91898446D02*
X168622619Y-91707970D01*
X168622619Y-91707970D02*
X168575000Y-91612732D01*
X168575000Y-91612732D02*
X168479762Y-91517494D01*
X168479762Y-91517494D02*
X168336905Y-91469875D01*
X168336905Y-91469875D02*
X168241667Y-91469875D01*
X168241667Y-91469875D02*
X168098810Y-91517494D01*
X168098810Y-91517494D02*
X168051191Y-91565113D01*
X167051191Y-92374636D02*
X167098810Y-92422256D01*
X167098810Y-92422256D02*
X167241667Y-92469875D01*
X167241667Y-92469875D02*
X167336905Y-92469875D01*
X167336905Y-92469875D02*
X167479762Y-92422256D01*
X167479762Y-92422256D02*
X167575000Y-92327017D01*
X167575000Y-92327017D02*
X167622619Y-92231779D01*
X167622619Y-92231779D02*
X167670238Y-92041303D01*
X167670238Y-92041303D02*
X167670238Y-91898446D01*
X167670238Y-91898446D02*
X167622619Y-91707970D01*
X167622619Y-91707970D02*
X167575000Y-91612732D01*
X167575000Y-91612732D02*
X167479762Y-91517494D01*
X167479762Y-91517494D02*
X167336905Y-91469875D01*
X167336905Y-91469875D02*
X167241667Y-91469875D01*
X167241667Y-91469875D02*
X167098810Y-91517494D01*
X167098810Y-91517494D02*
X167051191Y-91565113D01*
X165289286Y-92374636D02*
X165336905Y-92422256D01*
X165336905Y-92422256D02*
X165479762Y-92469875D01*
X165479762Y-92469875D02*
X165575000Y-92469875D01*
X165575000Y-92469875D02*
X165717857Y-92422256D01*
X165717857Y-92422256D02*
X165813095Y-92327017D01*
X165813095Y-92327017D02*
X165860714Y-92231779D01*
X165860714Y-92231779D02*
X165908333Y-92041303D01*
X165908333Y-92041303D02*
X165908333Y-91898446D01*
X165908333Y-91898446D02*
X165860714Y-91707970D01*
X165860714Y-91707970D02*
X165813095Y-91612732D01*
X165813095Y-91612732D02*
X165717857Y-91517494D01*
X165717857Y-91517494D02*
X165575000Y-91469875D01*
X165575000Y-91469875D02*
X165479762Y-91469875D01*
X165479762Y-91469875D02*
X165336905Y-91517494D01*
X165336905Y-91517494D02*
X165289286Y-91565113D01*
X164860714Y-92469875D02*
X164860714Y-91469875D01*
X164432143Y-92469875D02*
X164432143Y-91946065D01*
X164432143Y-91946065D02*
X164479762Y-91850827D01*
X164479762Y-91850827D02*
X164575000Y-91803208D01*
X164575000Y-91803208D02*
X164717857Y-91803208D01*
X164717857Y-91803208D02*
X164813095Y-91850827D01*
X164813095Y-91850827D02*
X164860714Y-91898446D01*
X163527381Y-92469875D02*
X163527381Y-91946065D01*
X163527381Y-91946065D02*
X163575000Y-91850827D01*
X163575000Y-91850827D02*
X163670238Y-91803208D01*
X163670238Y-91803208D02*
X163860714Y-91803208D01*
X163860714Y-91803208D02*
X163955952Y-91850827D01*
X163527381Y-92422256D02*
X163622619Y-92469875D01*
X163622619Y-92469875D02*
X163860714Y-92469875D01*
X163860714Y-92469875D02*
X163955952Y-92422256D01*
X163955952Y-92422256D02*
X164003571Y-92327017D01*
X164003571Y-92327017D02*
X164003571Y-92231779D01*
X164003571Y-92231779D02*
X163955952Y-92136541D01*
X163955952Y-92136541D02*
X163860714Y-92088922D01*
X163860714Y-92088922D02*
X163622619Y-92088922D01*
X163622619Y-92088922D02*
X163527381Y-92041303D01*
X163051190Y-92469875D02*
X163051190Y-91803208D01*
X163051190Y-91993684D02*
X163003571Y-91898446D01*
X163003571Y-91898446D02*
X162955952Y-91850827D01*
X162955952Y-91850827D02*
X162860714Y-91803208D01*
X162860714Y-91803208D02*
X162765476Y-91803208D01*
X162003571Y-91803208D02*
X162003571Y-92612732D01*
X162003571Y-92612732D02*
X162051190Y-92707970D01*
X162051190Y-92707970D02*
X162098809Y-92755589D01*
X162098809Y-92755589D02*
X162194047Y-92803208D01*
X162194047Y-92803208D02*
X162336904Y-92803208D01*
X162336904Y-92803208D02*
X162432142Y-92755589D01*
X162003571Y-92422256D02*
X162098809Y-92469875D01*
X162098809Y-92469875D02*
X162289285Y-92469875D01*
X162289285Y-92469875D02*
X162384523Y-92422256D01*
X162384523Y-92422256D02*
X162432142Y-92374636D01*
X162432142Y-92374636D02*
X162479761Y-92279398D01*
X162479761Y-92279398D02*
X162479761Y-91993684D01*
X162479761Y-91993684D02*
X162432142Y-91898446D01*
X162432142Y-91898446D02*
X162384523Y-91850827D01*
X162384523Y-91850827D02*
X162289285Y-91803208D01*
X162289285Y-91803208D02*
X162098809Y-91803208D01*
X162098809Y-91803208D02*
X162003571Y-91850827D01*
X161146428Y-92422256D02*
X161241666Y-92469875D01*
X161241666Y-92469875D02*
X161432142Y-92469875D01*
X161432142Y-92469875D02*
X161527380Y-92422256D01*
X161527380Y-92422256D02*
X161574999Y-92327017D01*
X161574999Y-92327017D02*
X161574999Y-91946065D01*
X161574999Y-91946065D02*
X161527380Y-91850827D01*
X161527380Y-91850827D02*
X161432142Y-91803208D01*
X161432142Y-91803208D02*
X161241666Y-91803208D01*
X161241666Y-91803208D02*
X161146428Y-91850827D01*
X161146428Y-91850827D02*
X161098809Y-91946065D01*
X161098809Y-91946065D02*
X161098809Y-92041303D01*
X161098809Y-92041303D02*
X161574999Y-92136541D01*
X160670237Y-92469875D02*
X160670237Y-91803208D01*
X160670237Y-91993684D02*
X160622618Y-91898446D01*
X160622618Y-91898446D02*
X160574999Y-91850827D01*
X160574999Y-91850827D02*
X160479761Y-91803208D01*
X160479761Y-91803208D02*
X160384523Y-91803208D01*
X168122618Y-94079819D02*
X168122618Y-93079819D01*
X167646428Y-93413152D02*
X167646428Y-94079819D01*
X167646428Y-93508390D02*
X167598809Y-93460771D01*
X167598809Y-93460771D02*
X167503571Y-93413152D01*
X167503571Y-93413152D02*
X167360714Y-93413152D01*
X167360714Y-93413152D02*
X167265476Y-93460771D01*
X167265476Y-93460771D02*
X167217857Y-93556009D01*
X167217857Y-93556009D02*
X167217857Y-94079819D01*
X166741666Y-93984580D02*
X166694047Y-94032200D01*
X166694047Y-94032200D02*
X166741666Y-94079819D01*
X166741666Y-94079819D02*
X166789285Y-94032200D01*
X166789285Y-94032200D02*
X166741666Y-93984580D01*
X166741666Y-93984580D02*
X166741666Y-94079819D01*
X166741666Y-93460771D02*
X166694047Y-93508390D01*
X166694047Y-93508390D02*
X166741666Y-93556009D01*
X166741666Y-93556009D02*
X166789285Y-93508390D01*
X166789285Y-93508390D02*
X166741666Y-93460771D01*
X166741666Y-93460771D02*
X166741666Y-93556009D01*
X165027381Y-93079819D02*
X165503571Y-93079819D01*
X165503571Y-93079819D02*
X165551190Y-93556009D01*
X165551190Y-93556009D02*
X165503571Y-93508390D01*
X165503571Y-93508390D02*
X165408333Y-93460771D01*
X165408333Y-93460771D02*
X165170238Y-93460771D01*
X165170238Y-93460771D02*
X165075000Y-93508390D01*
X165075000Y-93508390D02*
X165027381Y-93556009D01*
X165027381Y-93556009D02*
X164979762Y-93651247D01*
X164979762Y-93651247D02*
X164979762Y-93889342D01*
X164979762Y-93889342D02*
X165027381Y-93984580D01*
X165027381Y-93984580D02*
X165075000Y-94032200D01*
X165075000Y-94032200D02*
X165170238Y-94079819D01*
X165170238Y-94079819D02*
X165408333Y-94079819D01*
X165408333Y-94079819D02*
X165503571Y-94032200D01*
X165503571Y-94032200D02*
X165551190Y-93984580D01*
X164551190Y-93698866D02*
X163789286Y-93698866D01*
X162789286Y-94079819D02*
X163360714Y-94079819D01*
X163075000Y-94079819D02*
X163075000Y-93079819D01*
X163075000Y-93079819D02*
X163170238Y-93222676D01*
X163170238Y-93222676D02*
X163265476Y-93317914D01*
X163265476Y-93317914D02*
X163360714Y-93365533D01*
X162170238Y-93079819D02*
X162075000Y-93079819D01*
X162075000Y-93079819D02*
X161979762Y-93127438D01*
X161979762Y-93127438D02*
X161932143Y-93175057D01*
X161932143Y-93175057D02*
X161884524Y-93270295D01*
X161884524Y-93270295D02*
X161836905Y-93460771D01*
X161836905Y-93460771D02*
X161836905Y-93698866D01*
X161836905Y-93698866D02*
X161884524Y-93889342D01*
X161884524Y-93889342D02*
X161932143Y-93984580D01*
X161932143Y-93984580D02*
X161979762Y-94032200D01*
X161979762Y-94032200D02*
X162075000Y-94079819D01*
X162075000Y-94079819D02*
X162170238Y-94079819D01*
X162170238Y-94079819D02*
X162265476Y-94032200D01*
X162265476Y-94032200D02*
X162313095Y-93984580D01*
X162313095Y-93984580D02*
X162360714Y-93889342D01*
X162360714Y-93889342D02*
X162408333Y-93698866D01*
X162408333Y-93698866D02*
X162408333Y-93460771D01*
X162408333Y-93460771D02*
X162360714Y-93270295D01*
X162360714Y-93270295D02*
X162313095Y-93175057D01*
X162313095Y-93175057D02*
X162265476Y-93127438D01*
X162265476Y-93127438D02*
X162170238Y-93079819D01*
X161551190Y-93079819D02*
X161217857Y-94079819D01*
X161217857Y-94079819D02*
X160884524Y-93079819D01*
X168408333Y-95118334D02*
X168503571Y-95070715D01*
X168503571Y-95070715D02*
X168551190Y-95023096D01*
X168551190Y-95023096D02*
X168598809Y-94927858D01*
X168598809Y-94927858D02*
X168598809Y-94880239D01*
X168598809Y-94880239D02*
X168551190Y-94785001D01*
X168551190Y-94785001D02*
X168503571Y-94737382D01*
X168503571Y-94737382D02*
X168408333Y-94689763D01*
X168408333Y-94689763D02*
X168217857Y-94689763D01*
X168217857Y-94689763D02*
X168122619Y-94737382D01*
X168122619Y-94737382D02*
X168075000Y-94785001D01*
X168075000Y-94785001D02*
X168027381Y-94880239D01*
X168027381Y-94880239D02*
X168027381Y-94927858D01*
X168027381Y-94927858D02*
X168075000Y-95023096D01*
X168075000Y-95023096D02*
X168122619Y-95070715D01*
X168122619Y-95070715D02*
X168217857Y-95118334D01*
X168217857Y-95118334D02*
X168408333Y-95118334D01*
X168408333Y-95118334D02*
X168503571Y-95165953D01*
X168503571Y-95165953D02*
X168551190Y-95213572D01*
X168551190Y-95213572D02*
X168598809Y-95308810D01*
X168598809Y-95308810D02*
X168598809Y-95499286D01*
X168598809Y-95499286D02*
X168551190Y-95594524D01*
X168551190Y-95594524D02*
X168503571Y-95642144D01*
X168503571Y-95642144D02*
X168408333Y-95689763D01*
X168408333Y-95689763D02*
X168217857Y-95689763D01*
X168217857Y-95689763D02*
X168122619Y-95642144D01*
X168122619Y-95642144D02*
X168075000Y-95594524D01*
X168075000Y-95594524D02*
X168027381Y-95499286D01*
X168027381Y-95499286D02*
X168027381Y-95308810D01*
X168027381Y-95308810D02*
X168075000Y-95213572D01*
X168075000Y-95213572D02*
X168122619Y-95165953D01*
X168122619Y-95165953D02*
X168217857Y-95118334D01*
X167408333Y-94689763D02*
X167313095Y-94689763D01*
X167313095Y-94689763D02*
X167217857Y-94737382D01*
X167217857Y-94737382D02*
X167170238Y-94785001D01*
X167170238Y-94785001D02*
X167122619Y-94880239D01*
X167122619Y-94880239D02*
X167075000Y-95070715D01*
X167075000Y-95070715D02*
X167075000Y-95308810D01*
X167075000Y-95308810D02*
X167122619Y-95499286D01*
X167122619Y-95499286D02*
X167170238Y-95594524D01*
X167170238Y-95594524D02*
X167217857Y-95642144D01*
X167217857Y-95642144D02*
X167313095Y-95689763D01*
X167313095Y-95689763D02*
X167408333Y-95689763D01*
X167408333Y-95689763D02*
X167503571Y-95642144D01*
X167503571Y-95642144D02*
X167551190Y-95594524D01*
X167551190Y-95594524D02*
X167598809Y-95499286D01*
X167598809Y-95499286D02*
X167646428Y-95308810D01*
X167646428Y-95308810D02*
X167646428Y-95070715D01*
X167646428Y-95070715D02*
X167598809Y-94880239D01*
X167598809Y-94880239D02*
X167551190Y-94785001D01*
X167551190Y-94785001D02*
X167503571Y-94737382D01*
X167503571Y-94737382D02*
X167408333Y-94689763D01*
X166646428Y-95689763D02*
X166646428Y-95023096D01*
X166646428Y-95118334D02*
X166598809Y-95070715D01*
X166598809Y-95070715D02*
X166503571Y-95023096D01*
X166503571Y-95023096D02*
X166360714Y-95023096D01*
X166360714Y-95023096D02*
X166265476Y-95070715D01*
X166265476Y-95070715D02*
X166217857Y-95165953D01*
X166217857Y-95165953D02*
X166217857Y-95689763D01*
X166217857Y-95165953D02*
X166170238Y-95070715D01*
X166170238Y-95070715D02*
X166075000Y-95023096D01*
X166075000Y-95023096D02*
X165932143Y-95023096D01*
X165932143Y-95023096D02*
X165836904Y-95070715D01*
X165836904Y-95070715D02*
X165789285Y-95165953D01*
X165789285Y-95165953D02*
X165789285Y-95689763D01*
X165360714Y-95404048D02*
X164884524Y-95404048D01*
X165455952Y-95689763D02*
X165122619Y-94689763D01*
X165122619Y-94689763D02*
X164789286Y-95689763D01*
X163741666Y-94785001D02*
X163694047Y-94737382D01*
X163694047Y-94737382D02*
X163598809Y-94689763D01*
X163598809Y-94689763D02*
X163360714Y-94689763D01*
X163360714Y-94689763D02*
X163265476Y-94737382D01*
X163265476Y-94737382D02*
X163217857Y-94785001D01*
X163217857Y-94785001D02*
X163170238Y-94880239D01*
X163170238Y-94880239D02*
X163170238Y-94975477D01*
X163170238Y-94975477D02*
X163217857Y-95118334D01*
X163217857Y-95118334D02*
X163789285Y-95689763D01*
X163789285Y-95689763D02*
X163170238Y-95689763D01*
X162789285Y-94785001D02*
X162741666Y-94737382D01*
X162741666Y-94737382D02*
X162646428Y-94689763D01*
X162646428Y-94689763D02*
X162408333Y-94689763D01*
X162408333Y-94689763D02*
X162313095Y-94737382D01*
X162313095Y-94737382D02*
X162265476Y-94785001D01*
X162265476Y-94785001D02*
X162217857Y-94880239D01*
X162217857Y-94880239D02*
X162217857Y-94975477D01*
X162217857Y-94975477D02*
X162265476Y-95118334D01*
X162265476Y-95118334D02*
X162836904Y-95689763D01*
X162836904Y-95689763D02*
X162217857Y-95689763D01*
X161789285Y-95689763D02*
X161789285Y-94689763D01*
X161789285Y-95165953D02*
X161217857Y-95165953D01*
X161217857Y-95689763D02*
X161217857Y-94689763D01*
X160741666Y-95689763D02*
X160741666Y-95023096D01*
X160741666Y-95213572D02*
X160694047Y-95118334D01*
X160694047Y-95118334D02*
X160646428Y-95070715D01*
X160646428Y-95070715D02*
X160551190Y-95023096D01*
X160551190Y-95023096D02*
X160455952Y-95023096D01*
X166884523Y-97299707D02*
X167217856Y-96823516D01*
X167455951Y-97299707D02*
X167455951Y-96299707D01*
X167455951Y-96299707D02*
X167074999Y-96299707D01*
X167074999Y-96299707D02*
X166979761Y-96347326D01*
X166979761Y-96347326D02*
X166932142Y-96394945D01*
X166932142Y-96394945D02*
X166884523Y-96490183D01*
X166884523Y-96490183D02*
X166884523Y-96633040D01*
X166884523Y-96633040D02*
X166932142Y-96728278D01*
X166932142Y-96728278D02*
X166979761Y-96775897D01*
X166979761Y-96775897D02*
X167074999Y-96823516D01*
X167074999Y-96823516D02*
X167455951Y-96823516D01*
X166074999Y-97252088D02*
X166170237Y-97299707D01*
X166170237Y-97299707D02*
X166360713Y-97299707D01*
X166360713Y-97299707D02*
X166455951Y-97252088D01*
X166455951Y-97252088D02*
X166503570Y-97156849D01*
X166503570Y-97156849D02*
X166503570Y-96775897D01*
X166503570Y-96775897D02*
X166455951Y-96680659D01*
X166455951Y-96680659D02*
X166360713Y-96633040D01*
X166360713Y-96633040D02*
X166170237Y-96633040D01*
X166170237Y-96633040D02*
X166074999Y-96680659D01*
X166074999Y-96680659D02*
X166027380Y-96775897D01*
X166027380Y-96775897D02*
X166027380Y-96871135D01*
X166027380Y-96871135D02*
X166503570Y-96966373D01*
X165694046Y-96633040D02*
X165455951Y-97299707D01*
X165455951Y-97299707D02*
X165217856Y-96633040D01*
X164836903Y-97204468D02*
X164789284Y-97252088D01*
X164789284Y-97252088D02*
X164836903Y-97299707D01*
X164836903Y-97299707D02*
X164884522Y-97252088D01*
X164884522Y-97252088D02*
X164836903Y-97204468D01*
X164836903Y-97204468D02*
X164836903Y-97299707D01*
X163074999Y-97299707D02*
X163646427Y-97299707D01*
X163360713Y-97299707D02*
X163360713Y-96299707D01*
X163360713Y-96299707D02*
X163455951Y-96442564D01*
X163455951Y-96442564D02*
X163551189Y-96537802D01*
X163551189Y-96537802D02*
X163646427Y-96585421D01*
X162646427Y-97204468D02*
X162598808Y-97252088D01*
X162598808Y-97252088D02*
X162646427Y-97299707D01*
X162646427Y-97299707D02*
X162694046Y-97252088D01*
X162694046Y-97252088D02*
X162646427Y-97204468D01*
X162646427Y-97204468D02*
X162646427Y-97299707D01*
X161979761Y-96299707D02*
X161884523Y-96299707D01*
X161884523Y-96299707D02*
X161789285Y-96347326D01*
X161789285Y-96347326D02*
X161741666Y-96394945D01*
X161741666Y-96394945D02*
X161694047Y-96490183D01*
X161694047Y-96490183D02*
X161646428Y-96680659D01*
X161646428Y-96680659D02*
X161646428Y-96918754D01*
X161646428Y-96918754D02*
X161694047Y-97109230D01*
X161694047Y-97109230D02*
X161741666Y-97204468D01*
X161741666Y-97204468D02*
X161789285Y-97252088D01*
X161789285Y-97252088D02*
X161884523Y-97299707D01*
X161884523Y-97299707D02*
X161979761Y-97299707D01*
X161979761Y-97299707D02*
X162074999Y-97252088D01*
X162074999Y-97252088D02*
X162122618Y-97204468D01*
X162122618Y-97204468D02*
X162170237Y-97109230D01*
X162170237Y-97109230D02*
X162217856Y-96918754D01*
X162217856Y-96918754D02*
X162217856Y-96680659D01*
X162217856Y-96680659D02*
X162170237Y-96490183D01*
X162170237Y-96490183D02*
X162122618Y-96394945D01*
X162122618Y-96394945D02*
X162074999Y-96347326D01*
X162074999Y-96347326D02*
X161979761Y-96299707D01*
%LPC*%
%LPD*%
M02*
